<svg id="Layer_1" data-name="Layer 1" xmlns="http://www.w3.org/2000/svg" viewBox="0 0 1279 1169"><defs><style>.cls-1{fill:#fff4de;}.cls-2{fill:#f1b104;}.cls-3{fill:#d6eaf2;}.cls-10,.cls-15,.cls-4{fill:#fff;}.cls-4{stroke:#639ad6;}.cls-10,.cls-11,.cls-4,.cls-5{stroke-miterlimit:10;}.cls-10,.cls-11,.cls-15,.cls-4,.cls-5{stroke-width:3px;}.cls-11,.cls-5{fill:none;}.cls-5{stroke:#fff;}.cls-6{fill:#f4e8ce;}.cls-7{fill:#f9c543;}.cls-8{fill:#ffd473;}.cls-9{fill:#3a193f;}.cls-10,.cls-11,.cls-15{stroke:#f1b104;}.cls-12{fill:#a1cbe2;}.cls-13{fill:#948900;}.cls-14{fill:#b0a81f;}.cls-15{stroke-linecap:round;stroke-linejoin:round;}</style></defs><g id="NOTES"><rect class="cls-1" x="1003.91" y="222.36" width="42.53" height="42.53"/><rect class="cls-2" x="1022.89" y="217.11" width="4.57" height="10.68"/><path class="cls-3" d="M977.49,222.36v86.38a14.55,14.55,0,0,1-14.55,14.55H888.16v0A14.55,14.55,0,0,0,902,308.74V222.36Z"/><rect class="cls-2" x="935.13" y="217.11" width="4.57" height="10.68"/><line class="cls-4" x1="916.47" y1="243.23" x2="961.19" y2="243.23"/><line class="cls-4" x1="916.47" y1="254.32" x2="961.19" y2="254.32"/><line class="cls-4" x1="916.47" y1="265.41" x2="961.19" y2="265.41"/><line class="cls-4" x1="916.47" y1="276.49" x2="961.19" y2="276.49"/><line class="cls-4" x1="916.47" y1="287.58" x2="961.19" y2="287.58"/></g><g id="CHAIR"><polyline class="cls-3" points="694.69 780.38 638.34 1054.09 643.73 1054.09 719.14 780.45"/><polyline class="cls-3" points="894.57 773.92 952.04 1054.09 946.82 1054.09 871.48 780.33"/><polyline class="cls-3" points="816.29 780.38 872.65 1054.09 867.26 1054.09 791.85 780.45"/><path class="cls-3" d="M956.11,646,922.08,747a51.67,51.67,0,0,1-49,35.17H680.58a51.67,51.67,0,0,1-49-35.17l-28-83.12a22.36,22.36,0,0,1,21.19-29.49h21.56a20.39,20.39,0,0,0,20.18-17.54l12.56-89.16a43.12,43.12,0,0,1,42.71-37.12H895.21a43.13,43.13,0,0,1,42.72,49.12l-10.78,76.93a15.62,15.62,0,0,0,15.46,17.77h5.2A8.75,8.75,0,0,1,956.11,646Z"/><path class="cls-5" d="M941.59,633.31H927.34A44.35,44.35,0,0,0,885,663.36l-24.38,67.76A46.78,46.78,0,0,1,816.32,763H638.89"/></g><g id="TABLE"><rect class="cls-1" x="145.87" y="594.52" width="1011.89" height="21.69"/><rect class="cls-6" x="1003.73" y="980.86" width="126" height="15.21"/><rect class="cls-1" x="1021.07" y="616.93" width="91.13" height="20.16"/><path class="cls-1" d="M1147.48,1055.88h0a9.25,9.25,0,0,1-9.11-7.59l-69.64-378.84a2.13,2.13,0,0,0-4.18,0l-69.64,378.84a9.26,9.26,0,0,1-9.11,7.59h0a9.26,9.26,0,0,1-9.11-10.94l75.1-408.56h29.7l75.1,408.56A9.27,9.27,0,0,1,1147.48,1055.88Z"/><rect class="cls-6" x="174.09" y="980.86" width="126" height="15.21"/><rect class="cls-1" x="191.43" y="616.93" width="91.13" height="20.16"/><path class="cls-1" d="M317.84,1055.88h0a9.26,9.26,0,0,1-9.11-7.59L239.09,669.46a2.13,2.13,0,0,0-4.18,0l-69.64,378.83a9.25,9.25,0,0,1-9.11,7.59h0a9.26,9.26,0,0,1-9.11-10.94l75.1-408.56h29.7L327,1044.94A9.26,9.26,0,0,1,317.84,1055.88Z"/></g><g id="LAPTOP"><path class="cls-2" d="M563.44,450.7H400.83a11.13,11.13,0,0,0-10.44,15l41,111.41H621.8L579.41,461.84A17,17,0,0,0,563.44,450.7Z"/><path class="cls-7" d="M560.25,456.35H401.68A10.86,10.86,0,0,0,391.5,471l40,108.63H617.15L575.81,467.21A16.59,16.59,0,0,0,560.25,456.35Z"/><path class="cls-2" d="M431,577.08H742.93A15.94,15.94,0,0,1,758.87,593v.43a0,0,0,0,1,0,0H447A15.94,15.94,0,0,1,431,577.51v-.43a0,0,0,0,1,0,0Z"/><ellipse class="cls-8" cx="498.95" cy="517.97" rx="15.76" ry="19.45" transform="translate(-219.84 542.18) rotate(-48)"/><rect class="cls-9" x="648.77" y="582.93" width="13.29" height="4.77"/><rect class="cls-2" x="674.16" y="582.93" width="13.29" height="4.77"/></g><g id="CUP"><path class="cls-10" d="M1005.26,548.66h-5.15V538.25H953.2v47.37a8.9,8.9,0,0,0,8.9,8.9h29.11a8.89,8.89,0,0,0,8.9-8.9V569.48h5.15a10.41,10.41,0,0,0,0-20.82Zm3.65,14.28a5.47,5.47,0,0,1-3.87,1.61h-4.93v-11H1005a5.47,5.47,0,0,1,3.87,9.35Z"/><path class="cls-1" d="M980.23,533.83c-2.47-2.53-15.4-11-12.51-23.19s21.2-9.55,20.64-23.16c-.47-11.55-10.6-6.93-12.81-2.72,0,0,1.34-15.24,15.26-10.15,23.5,8.6-3.79,33-11.58,39.76C972.06,520.54,980.23,533.83,980.23,533.83Z"/><path class="cls-1" d="M996.66,501.14s-3,10.28-15.21,15.34C981.45,516.48,1000.2,516.48,996.66,501.14Z"/></g><g id="LAMP"><path class="cls-11" d="M1131.84,594.52S1167,401.9,990.9,375"/><path class="cls-7" d="M1132.53,593.45h-93.75c6.55-15.17,25.06-26.1,46.87-26.1S1126,578.28,1132.53,593.45Z"/><path class="cls-2" d="M1132.53,593.45h-11.8c-6.21-14.39-23.78-24.77-44.48-24.77-1.45,0-2.89.05-4.32.16a63.19,63.19,0,0,1,13.72-1.49C1107.47,567.35,1126,578.28,1132.53,593.45Z"/><path class="cls-7" d="M992.4,376.79c-.84,3.81-3.84,6.79-8.1,8.6-4.89,2.09-11.42,2.63-18.23,1.13s-12.5-4.76-16.06-8.71c-3.1-3.44-4.56-7.4-3.72-11.21,1.81-8.19,13.6-12.54,26.33-9.73S994.21,368.61,992.4,376.79Z"/><path class="cls-7" d="M992.4,376.79c-.79,3.58-3.49,6.42-7.34,8.26a10.24,10.24,0,0,0,3.63-5.68c1.69-7.63-6.57-15.95-18.45-18.58-11.2-2.47-21.62,1-24.18,7.8a9.64,9.64,0,0,1,.23-2c1.81-8.19,13.6-12.54,26.33-9.73S994.21,368.61,992.4,376.79Z"/><path class="cls-2" d="M981.72,383.49a27.61,27.61,0,0,1-28.57-6.31c-1.64-3.61,8.09-4.86,15.69-3.18S984.86,381.6,981.72,383.49Z"/></g><g id="SHELF"><path id="SHADOW" class="cls-1" d="M219.66,295.33H553v30.53l-333.4-28.18C218.71,297.6,218.77,295.33,219.66,295.33Z"/><g id="BOOKS"><rect class="cls-10" x="497.87" y="144.39" width="24.32" height="125.15" rx="5.15"/><rect class="cls-2" x="469.57" y="154.98" width="26.8" height="117.04" rx="5.03"/><rect class="cls-3" x="455.67" y="126.56" width="13.9" height="145.46" rx="4.69"/><rect class="cls-10" x="432.36" y="163.45" width="22.32" height="107.08" rx="5.14"/><path class="cls-2" d="M390.85,272H371.36L420.1,141.45a2.64,2.64,0,0,1,2.47-1.74h13.82a2.68,2.68,0,0,1,2.48,3.64Z"/></g><rect id="SHELF-2" data-name="SHELF" class="cls-10" x="220.39" y="272.02" width="331.65" height="21.88"/><g id="PLANT"><path class="cls-2" d="M253.9,223.5h83.71a0,0,0,0,1,0,0v9.19A39.33,39.33,0,0,1,298.29,272h-5.06a39.33,39.33,0,0,1-39.33-39.33V223.5a0,0,0,0,1,0,0Z"/><path class="cls-12" d="M329.22,223.5H267.17s-18.13,14.8-28.49,2.67c-7.5-8.79,28.39-9.18,28.39-9.18l1.08-.38s-15.39-32.31-.85-37.71c10.05-3.73,12.49,23.65,13,32.55,5.3-2.22,15.62-5.41,16.5,3,0,0,1.15-34.59,15.65-31.28,12.05,2.74-5.83,35.25-5.83,35.25l1.26.77S341,195,349.11,200.59C355.28,204.86,329.22,223.5,329.22,223.5Z"/><path class="cls-3" d="M276.7,223.5s.65-29.81,11.87-29-4.42,29-4.42,29Z"/><path class="cls-3" d="M276.7,223.5s-11.26-28.13-26.52-20.93c-14.9,7,17.17,20.93,17.17,20.93Z"/><path class="cls-3" d="M299.85,223.5S310,198.15,326,200.56,306.2,223.5,306.2,223.5Z"/><path class="cls-3" d="M316.34,223.5s31.36-15.79,37-6.27S316.34,223.5,316.34,223.5Z"/></g></g><path class="cls-13" d="M422.84,936.39S425.3,768.8,503.5,669.46c0,0-40.33,56.48-53.3,266.93Z"/><path class="cls-13" d="M438.84,936.39s17.56-179.27-76.33-246.34c0,0,76.91,70.07,43.89,246.34Z"/><path class="cls-13" d="M428.57,933.88s-.58-160-85.73-198c0,0,85.15,61.89,57.7,198Z"/><path class="cls-14" d="M414.19,936.39s-20-178.9,44.23-241.48c0,0-35.58,70.86-19.58,241.48Z"/><path class="cls-14" d="M435.4,936.39s0-140.27,80.62-166.52c0,0-65.33,71.34-55.61,166.52Z"/><path class="cls-14" d="M395.57,936.39s11.53-74.63-47.18-108.08c0,0,68.55,15.09,65.8,108.08Z"/><rect class="cls-15" x="377.7" y="935.52" width="100.58" height="100.58" rx="13.5"/></svg>