<svg xmlns="http://www.w3.org/2000/svg" viewBox="0 0 1102.15 843.62"><defs><style>.cls-1{fill:#fc543d;}.cls-2{fill:#fff;}.cls-3{fill:#f4d34d;}.cls-4{fill:#a6b5ff;}.cls-5{fill:#f7e8a6;}.cls-6{fill:#fcbdb6;}.cls-10,.cls-7,.cls-9{fill:none;}.cls-7{stroke:#f4d34d;}.cls-10,.cls-7{stroke-miterlimit:10;}.cls-7,.cls-9{stroke-width:5px;}.cls-8{fill:#d9e0f9;}.cls-9{stroke:#fff;stroke-linecap:round;stroke-linejoin:round;}.cls-10{stroke:#553ef9;stroke-width:4px;}.cls-11{fill:#553ef9;}</style></defs><g id="bells"><path class="cls-1" d="M563.43,646.57H598a5.92,5.92,0,0,1,5.92,5.92V693a0,0,0,0,1,0,0H557.51a0,0,0,0,1,0,0V652.49A5.92,5.92,0,0,1,563.43,646.57Z" transform="translate(424.47 -238.77) rotate(34.09)"/><circle class="cls-2" cx="529.98" cy="641.4" r="9.56"/><circle class="cls-3" cx="468.48" cy="732.27" r="91.34"/><path class="cls-4" d="M608.07,782.8a91.36,91.36,0,0,0-142.45-96.41Z" transform="translate(-50.73 -28.38)"/><path class="cls-4" d="M429.1,747.61a91.33,91.33,0,0,0,135.7,91.85Z" transform="translate(-50.73 -28.38)"/><circle class="cls-2" cx="417.94" cy="702.73" r="12.69"/><circle class="cls-2" cx="451.62" cy="726.01" r="12.69"/><circle class="cls-2" cx="485.3" cy="749.3" r="12.69"/><circle class="cls-2" cx="519.87" cy="772.73" r="12.69"/><path class="cls-1" d="M770.27,149.44" transform="translate(-50.73 -28.38)"/><path class="cls-1" d="M676.14,154.2l-74.76-29.47a9.53,9.53,0,0,0-12.56,11.8l28.82,89.27a9.53,9.53,0,0,0,16.61,2.89l46.1-59.76Z" transform="translate(-50.73 -28.38)"/><path class="cls-1" d="M685.07,149.43,726,80.27a9.53,9.53,0,0,1,17.16,1.59L775.21,170a9.53,9.53,0,0,1-11.34,12.49L690.8,163.64Z" transform="translate(-50.73 -28.38)"/><ellipse class="cls-1" cx="683.93" cy="157.06" rx="17.71" ry="21.34" transform="translate(-64.68 202.14) rotate(-18.94)"/><ellipse class="cls-3" cx="640.13" cy="330.42" rx="16.83" ry="13.2" transform="translate(28.68 754.3) rotate(-66.19)"/><path class="cls-5" d="M691.3,347.29l-4.13-15.43a13.73,13.73,0,0,1,.7-9.09l18.18-41.18a40.93,40.93,0,0,0-20.92-54h0a40.91,40.91,0,0,0-54,20.92l-18.51,41.92a11.6,11.6,0,0,1-5.76,5.87l-15,7a3.41,3.41,0,0,0,.06,6.22l94.67,41.77A3.41,3.41,0,0,0,691.3,347.29Z" transform="translate(-50.73 -28.38)"/><circle class="cls-3" cx="634.12" cy="197.51" r="14.76"/><ellipse class="cls-3" cx="818.62" cy="266.82" rx="13.2" ry="16.83" transform="translate(124.24 810.33) rotate(-59.67)"/><path class="cls-5" d="M841.19,217.9l-15.79,2.35a13.74,13.74,0,0,1-9-1.73l-38.85-22.73a40.93,40.93,0,0,0-56,14.66h0a40.93,40.93,0,0,0,14.66,56l39.56,23.14A11.65,11.65,0,0,1,781,296l5.21,15.7a3.41,3.41,0,0,0,6.19.65L844.64,223A3.42,3.42,0,0,0,841.19,217.9Z" transform="translate(-50.73 -28.38)"/><circle class="cls-3" cx="669.11" cy="182.15" r="14.76"/><path class="cls-2" d="M899.69,836.87a180.32,180.32,0,0,1-26.6-2,8.51,8.51,0,0,1-7.06-10h0a8.5,8.5,0,0,1,9.6-6.79c40.75,6.11,75-2.52,102-25.71a121.74,121.74,0,0,0,27.19-33.7,8.52,8.52,0,0,1,10.6-3.87h0a8.52,8.52,0,0,1,4.36,12,138.19,138.19,0,0,1-30.43,37.92C971.3,820.36,942.22,836.87,899.69,836.87Z" transform="translate(-50.73 -28.38)"/></g><g id="decorative_elements" data-name="decorative elements"><circle class="cls-4" cx="864.29" cy="280.85" r="13.22"/><polygon class="cls-1" points="667.27 389.55 680.67 395 692.76 387.06 691.71 401.49 703 410.53 688.96 413.99 683.85 427.52 676.21 415.23 661.77 414.55 671.09 403.5 667.27 389.55"/><polygon class="cls-6" points="59.94 134.4 55.49 148.16 64.31 159.62 49.85 159.65 41.67 171.58 37.18 157.84 23.3 153.75 34.99 145.22 34.59 130.76 46.31 139.24 59.94 134.4"/><circle class="cls-6" cx="58.27" cy="767.62" r="14"/><path class="cls-7" d="M67.72,293.32a83,83,0,0,0,33,66.45c5.74,4.26,12.57,7.88,19.68,7.18s14-7.32,12.49-14.32c-1.09-5.22-6.37-8.81-11.68-9.34s-10.57,1.4-15.3,3.87c-19.15,10-32.63,29.6-36.69,50.83s.92,43.77,12.21,62.21" transform="translate(-50.73 -28.38)"/><path class="cls-7" d="M832.23,416c-3.25-13.75,2.87-28.41,12.63-38.62s22.72-16.67,35.68-22.3" transform="translate(-50.73 -28.38)"/></g><g id="candy"><path class="cls-8" d="M114.35,510.8h22.88a0,0,0,0,1,0,0V734.28a10.48,10.48,0,0,1-10.48,10.48h-1.92a10.48,10.48,0,0,1-10.48-10.48V510.8A0,0,0,0,1,114.35,510.8Z" transform="translate(350.49 21.42) rotate(36.81)"/><circle class="cls-4" cx="179.63" cy="457.82" r="80.44"/><path class="cls-9" d="M147.35,499.19c3.07-26.27,26.6-58.49,49.82-67.8s51.92-5.15,71.16,10.85c19.57,16.28,27.81,43.47,18.07,67s-37.35,39.92-62.4,35.35A66.45,66.45,0,0,1,204.07,538a56.23,56.23,0,0,1-14.16-11.66C177.84,513,177.54,491.11,188,476.48s28.88-23,46.58-19.89c6.55,1.14,14,5,19.14,9.23,11.28,9.43,12.5,29.27,3.94,41.23s-26,14.77-38.52,7.12c-4.22-2.56-8.59-7-9.61-11.79a22.38,22.38,0,0,1,.14-10c2.07-6.65,10.16-13.39,17.11-13,10.63.58,14.66,8.66,13.3,15.49" transform="translate(-50.73 -28.38)"/></g><g id="flags"><polygon class="cls-1" points="812.79 20.64 759.27 64.51 803.58 63.98 792.33 109.8 848.77 63.54 812.79 20.64"/><polygon class="cls-4" points="866.66 84.35 827.75 141.57 870.09 128.53 872.27 175.66 913.32 115.32 866.66 84.35"/><polygon class="cls-3" points="941.87 126.49 931.64 194.93 964.13 164.8 986.55 206.31 997.34 134.14 941.87 126.49"/><polygon class="cls-6" points="1029.16 130.77 1047.29 197.56 1064.94 156.92 1102.15 185.93 1083.03 115.5 1029.16 130.77"/><path class="cls-7" d="M852.09,29.55S897.59,115.14,979,148.32s171.4-9.74,171.4-9.74" transform="translate(-50.73 -28.38)"/></g><g id="Слой_4" data-name="Слой 4"><circle class="cls-3" cx="283.79" cy="148.51" r="75.22"/><path class="cls-3" d="M626.75,479,520,423.83a30.78,30.78,0,0,1-13.61-14L447.84,287.26a15.26,15.26,0,0,1,5.6-19.46L511.5,231a37.13,37.13,0,0,0,10.85-52.18h0a37.14,37.14,0,0,0-49.26-11.35l-71.59,41.2-94.87,40.91L227.12,272a37.12,37.12,0,0,0-26.31,43.16h0a37.12,37.12,0,0,0,44.9,28.72L312.63,328a15.26,15.26,0,0,1,17.83,9.6l46.71,127.5a30.72,30.72,0,0,1,.53,19.55L342.54,599.6a37.42,37.42,0,0,0,25.08,46.8h0a37.41,37.41,0,0,0,46.58-25.26l43.41-147L592.06,545.3a37.42,37.42,0,0,0,50.63-15.66h0A37.41,37.41,0,0,0,626.75,479Z" transform="translate(-50.73 -28.38)"/><path class="cls-1" d="M524.35,270.36h0A11.34,11.34,0,0,0,528,254.75l-58.7-94.64a10.5,10.5,0,0,1,2.54-14,10.26,10.26,0,0,1,14.7,2.92l4.84,7.8A11.35,11.35,0,0,0,507,160.45h0a11.35,11.35,0,0,0,3.66-15.61l-4.47-7.2c-9.44-15.23-29.35-20.73-44.85-11.74a33,33,0,0,0-11.48,45.85l58.88,94.95A11.35,11.35,0,0,0,524.35,270.36Z" transform="translate(-50.73 -28.38)"/><circle class="cls-2" cx="256.75" cy="159.58" r="9.31"/><circle class="cls-2" cx="308.9" cy="135.4" r="9.31"/><circle class="cls-1" cx="287.89" cy="159.27" r="6.41"/><path class="cls-10" d="M322,203.15l.28.25c6.6,6.06,15.55,7.84,23.11,4.59l2.29-1c8.23-3.53,13.2-12.32,12.52-22.12h0" transform="translate(-50.73 -28.38)"/><path class="cls-1" d="M357.7,86S304,28.09,245.1,53.41s-55.77,110.49-35.87,143.8l11-4.72s-11.59-31.3-.61-42.54c5.93-6,20.14.81,22.46,9l3.79,7.21Z" transform="translate(-50.73 -28.38)"/><circle class="cls-5" cx="164.68" cy="177.81" r="22.65"/><ellipse class="cls-5" cx="263.65" cy="163.45" rx="35.41" ry="20.85" transform="translate(-95.84 164.99) rotate(-37.33)"/><ellipse class="cls-5" cx="305.63" cy="134.4" rx="35.41" ry="20.85" transform="translate(-69.62 184.49) rotate(-37.33)"/><ellipse class="cls-5" cx="345.06" cy="109" rx="35.41" ry="20.85" transform="translate(-46.14 203.2) rotate(-37.33)"/><circle class="cls-5" cx="326.48" cy="250.14" r="14.53"/><circle class="cls-5" cx="351.46" cy="308.25" r="14.53"/><circle class="cls-5" cx="376.43" cy="366.35" r="14.53"/><path class="cls-1" d="M382.27,207l-16.43,21.67a10.23,10.23,0,0,0-13.48,5.54l-26.56-2.94a2.57,2.57,0,0,0-2.63,3.62l16.52,36.58a2.57,2.57,0,0,0,4.42.46l15-20.5A10.23,10.23,0,0,0,373.46,245l25.71,3.25a2.57,2.57,0,0,0,2.71-3.52L386.7,207.53A2.57,2.57,0,0,0,382.27,207Z" transform="translate(-50.73 -28.38)"/><path class="cls-1" d="M280.71,192.54" transform="translate(-50.73 -28.38)"/><circle class="cls-11" cx="256.46" cy="159.75" r="6.41"/><circle class="cls-11" cx="309.18" cy="135.23" r="6.41"/></g><g id="maffin"><path class="cls-7" d="M214.06,688.79s-3.6,32.7,13.88,55.65" transform="translate(-50.73 -28.38)"/><path class="cls-6" d="M229.77,818.79l41.67,23.28a5.47,5.47,0,0,0,6.38-.77l38.26-35.41a5.46,5.46,0,0,0,1.35-6.07l-18.34-45.2Z" transform="translate(-50.73 -28.38)"/><rect class="cls-3" x="202.15" y="750.8" width="87.94" height="28.18" rx="14.09" transform="translate(-504.83 342.39) rotate(-42.79)"/><rect class="cls-4" x="206.03" y="767.39" width="109.39" height="28.18" rx="14.09" transform="translate(-512.21 356.73) rotate(-42.79)"/><circle class="cls-1" cx="181" cy="719.34" r="14.92"/></g><g id="snowman"><circle class="cls-8" cx="1043.24" cy="640.4" r="44.94"/><circle class="cls-8" cx="851.51" cy="669.64" r="173.95"/><circle class="cls-8" cx="959.96" cy="452.95" r="103.45"/><path class="cls-3" d="M985.07,381.05l140.25-108.61a1.49,1.49,0,0,1,2.4,1.35L1108,449S1017.85,464.05,985.07,381.05Z" transform="translate(-50.73 -28.38)"/><circle class="cls-2" cx="920.75" cy="418.25" r="14.2"/><circle class="cls-4" cx="920.75" cy="418.25" r="9.13"/><circle class="cls-2" cx="980.99" cy="450.47" r="14.2"/><circle class="cls-4" cx="980.99" cy="450.47" r="9.13"/><circle class="cls-4" cx="939.57" cy="492.76" r="5.33"/><circle class="cls-4" cx="919.15" cy="490.93" r="5.33"/><circle class="cls-4" cx="903.54" cy="481.3" r="5.33"/><circle class="cls-4" cx="895.34" cy="464" r="5.33"/><path class="cls-1" d="M990.59,473.14l-88.23-18.82a.81.81,0,0,0-.47,1.51l81.43,43.53c1.87,1,5.4,2.2,6.91.82,3.09-2.82,7.72-10.57,8-22.27C998.32,475.14,993.42,473.23,990.59,473.14Z" transform="translate(-50.73 -28.38)"/><circle class="cls-8" cx="767.39" cy="503.6" r="44.94"/><path class="cls-4" d="M913.41,498.6c18.52,17.52,65.38,47.73,147.14,70.68a13.1,13.1,0,0,1,9.54,12.31l1.05,42.77a13.12,13.12,0,0,1-14.61,13.37c-35.28-4-125.79-20.68-193.15-87.91a13.16,13.16,0,0,1-.81-17.82l31.8-32.31A13.12,13.12,0,0,1,913.41,498.6Z" transform="translate(-50.73 -28.38)"/><path class="cls-4" d="M874.93,524.27c-40.33,5.29-79.66,34-109.78,61.35-27.82,25.25-55.42,52.56-89.59,67.52A8.06,8.06,0,0,0,672,664.77l42,67.55a8.07,8.07,0,0,0,12.13,1.85c18.65-16.09,69.52-60.87,102.33-98,40.79-46.2,96.09-55.42,96.09-55.42Z" transform="translate(-50.73 -28.38)"/></g></svg>