<?xml version="1.0" encoding="UTF-8" standalone="no"?>
<svg
   xmlns:dc="http://purl.org/dc/elements/1.1/"
   xmlns:cc="http://creativecommons.org/ns#"
   xmlns:rdf="http://www.w3.org/1999/02/22-rdf-syntax-ns#"
   xmlns:svg="http://www.w3.org/2000/svg"
   xmlns="http://www.w3.org/2000/svg"
   xmlns:sodipodi="http://sodipodi.sourceforge.net/DTD/sodipodi-0.dtd"
   xmlns:inkscape="http://www.inkscape.org/namespaces/inkscape"
   id="svg"
   width="24"
   height="24"
   viewBox="0, 0, 400,400"
   version="1.1"
   sodipodi:docname="butterfly-stroke.svg"
   inkscape:version="1.0.2-2 (e86c870879, 2021-01-15)">
  <metadata
     id="metadata1561">
    <rdf:RDF>
      <cc:Work
         rdf:about="">
        <dc:format>image/svg+xml</dc:format>
        <dc:type
           rdf:resource="http://purl.org/dc/dcmitype/StillImage" />
        <dc:title></dc:title>
      </cc:Work>
    </rdf:RDF>
  </metadata>
  <defs
     id="defs1559" />
  <sodipodi:namedview
     pagecolor="#ffffff"
     bordercolor="#666666"
     borderopacity="1"
     objecttolerance="10"
     gridtolerance="10"
     guidetolerance="10"
     inkscape:pageopacity="0"
     inkscape:pageshadow="2"
     inkscape:window-width="1920"
     inkscape:window-height="1001"
     id="namedview1557"
     showgrid="false"
     inkscape:zoom="34.583333"
     inkscape:cx="6.4337349"
     inkscape:cy="12"
     inkscape:window-x="-9"
     inkscape:window-y="-9"
     inkscape:window-maximized="1"
     inkscape:current-layer="svgg" />
  <g
     id="svgg">
    <path
       id="path0"
       d="M47.520 75.106 C 44.724 75.477,43.161 79.374,43.985 83.919 C 46.551 98.066,61.821 111.142,77.100 112.274 C 81.429 112.595,81.428 112.331,77.088 104.997 C 64.869 84.352,54.771 74.143,47.520 75.106 M348.200 75.689 C 342.223 77.809,333.080 88.312,323.730 103.800 C 318.617 112.269,318.578 112.644,322.857 112.222 C 333.326 111.190,343.416 105.477,349.738 97.000 C 358.814 84.830,357.906 72.246,348.200 75.689 M93.990 94.612 C 91.906 97.124,95.597 113.764,100.550 124.184 C 111.350 146.904,125.991 161.247,143.639 166.393 C 147.935 167.646,151.344 168.841,151.780 169.247 C 152.910 170.298,155.600 169.155,155.600 167.624 C 155.600 165.479,147.041 147.246,141.565 137.724 C 128.290 114.641,113.408 99.695,99.049 95.025 C 95.391 93.835,94.683 93.777,93.990 94.612 M302.400 94.630 C 283.476 99.595,260.806 127.094,246.162 162.849 C 243.366 169.676,243.799 169.989,252.478 167.430 C 271.588 161.794,281.184 154.228,293.328 135.218 C 301.767 122.010,309.164 98.021,305.827 94.684 C 305.030 93.887,305.219 93.890,302.400 94.630 M116.800 222.564 C 102.520 226.197,102.835 226.087,100.394 228.281 C 95.638 232.557,92.439 244.241,94.665 249.200 C 98.690 258.163,107.745 258.119,113.299 249.109 C 118.679 240.381,130.033 220.378,129.811 220.018 C 129.416 219.379,129.002 219.460,116.800 222.564 M270.567 220.141 C 270.294 220.854,270.089 220.461,276.109 230.764 C 278.756 235.294,282.470 241.688,284.361 244.973 C 288.138 251.534,289.931 253.660,292.740 254.905 C 301.311 258.706,309.721 249.570,305.726 240.800 C 305.275 239.810,304.582 237.920,304.186 236.600 C 301.580 227.904,300.056 226.882,283.600 222.792 C 277.330 221.234,271.884 219.866,271.498 219.752 C 271.092 219.632,270.699 219.797,270.567 220.141 "
       stroke="none"
       fill="#efb3b3"
       fill-rule="evenodd"
       style="fill:none;stroke:#000000;stroke-opacity:1" />
    <path
       id="path1"
       d="M159.424 45.300 C 154.493 50.246,155.165 61.678,160.817 69.019 C 165.791 75.478,179.995 82.902,181.251 79.700 C 181.841 78.197,181.322 65.440,180.551 62.468 C 177.731 51.604,164.145 40.564,159.424 45.300 M232.880 45.900 C 222.786 51.735,219.372 57.768,218.756 70.856 C 218.244 81.735,218.298 81.826,223.933 79.575 C 237.949 73.977,245.142 64.307,243.647 53.072 C 242.483 44.322,239.290 42.195,232.880 45.900 M164.916 45.656 C 176.113 51.350,180.381 58.808,180.394 72.700 L 180.400 79.600 179.404 79.600 C 176.123 79.600,166.343 73.739,162.215 69.299 C 154.011 60.474,156.209 41.229,164.916 45.656 M239.584 45.589 C 243.901 48.663,243.917 60.486,239.613 66.757 C 235.729 72.415,225.065 79.600,220.551 79.600 L 219.600 79.600 219.607 72.900 C 219.621 58.901,223.223 52.332,234.297 46.105 C 236.968 44.603,238.051 44.497,239.584 45.589 M23.400 54.382 C 23.969 54.613,23.650 54.702,22.292 54.690 C 21.243 54.681,19.983 54.867,19.492 55.103 C 19.002 55.339,18.015 55.772,17.300 56.064 C 16.585 56.356,16.000 56.731,16.000 56.898 C 16.000 57.064,15.766 57.200,15.480 57.200 C 15.194 57.200,14.735 57.425,14.460 57.700 C 14.185 57.975,13.802 58.200,13.609 58.200 C 11.755 58.200,5.183 67.651,5.194 70.300 C 5.197 71.015,5.020 71.600,4.800 71.600 C 4.263 71.600,4.263 82.268,4.800 82.600 C 5.020 82.736,5.200 83.366,5.200 84.000 C 5.200 84.634,5.380 85.264,5.600 85.400 C 5.820 85.536,6.000 85.916,6.000 86.245 C 6.000 87.017,7.789 89.657,8.135 89.398 C 8.281 89.289,8.317 89.313,8.216 89.451 C 7.908 89.870,10.397 93.200,11.019 93.200 C 11.339 93.200,11.600 93.464,11.600 93.786 C 11.600 94.108,11.946 94.557,12.369 94.783 C 12.792 95.010,13.454 95.511,13.840 95.897 C 15.450 97.508,17.325 98.771,17.748 98.530 C 17.996 98.388,18.071 98.415,17.912 98.590 C 17.651 98.880,20.659 101.587,21.253 101.596 C 21.625 101.602,24.609 104.648,25.349 105.778 C 26.663 107.784,27.600 109.645,27.600 110.250 C 27.600 110.595,27.935 111.354,28.345 111.938 C 28.755 112.522,29.041 113.315,28.981 113.700 C 28.920 114.085,28.990 114.400,29.135 114.399 C 29.281 114.399,29.346 117.216,29.280 120.659 C 29.203 124.659,29.311 127.071,29.580 127.340 C 29.811 127.571,30.000 128.266,30.000 128.885 C 30.000 129.867,30.585 131.385,31.200 132.000 C 31.642 132.442,32.400 134.020,32.400 134.498 C 32.400 134.779,33.278 135.953,34.351 137.108 C 35.425 138.263,36.730 139.835,37.251 140.601 C 37.773 141.368,38.335 141.996,38.500 141.997 C 38.665 141.999,38.800 142.270,38.800 142.600 C 38.800 142.930,38.980 143.200,39.200 143.200 C 39.420 143.200,39.600 143.449,39.600 143.754 C 39.600 144.059,39.861 144.811,40.180 145.426 C 40.498 146.040,40.668 146.691,40.556 146.871 C 40.444 147.052,40.527 147.200,40.739 147.200 C 41.420 147.200,41.664 151.458,41.848 166.594 C 41.954 175.298,42.187 181.547,42.414 181.774 C 42.626 181.986,42.800 182.563,42.800 183.056 C 42.800 183.549,42.980 184.064,43.200 184.200 C 43.420 184.336,43.600 184.780,43.600 185.186 C 43.600 186.814,47.822 193.104,48.771 192.890 C 49.040 192.830,49.162 192.938,49.043 193.131 C 48.757 193.593,52.637 197.200,53.419 197.200 C 53.752 197.200,54.129 197.470,54.255 197.800 C 54.382 198.130,54.927 198.400,55.466 198.400 C 56.006 198.400,56.352 198.554,56.235 198.743 C 55.980 199.155,58.704 200.514,61.200 201.219 C 62.996 201.727,81.076 201.824,83.080 201.337 C 84.418 201.012,83.060 199.748,81.000 199.401 C 59.782 195.831,51.507 186.550,56.746 172.200 C 59.418 164.882,59.671 163.863,59.893 159.519 C 60.399 149.600,58.218 144.811,48.514 134.529 C 39.206 124.666,38.222 122.662,37.785 112.684 C 37.301 101.623,35.420 97.347,27.182 88.581 C 16.755 77.486,16.784 65.526,27.253 58.824 C 30.019 57.054,30.762 56.375,30.895 55.498 C 31.125 53.983,31.164 53.997,26.633 54.028 C 24.145 54.045,22.906 54.181,23.400 54.382 M42.500 54.287 C 43.105 54.378,44.095 54.378,44.700 54.287 C 45.305 54.195,44.810 54.120,43.600 54.120 C 42.390 54.120,41.895 54.195,42.500 54.287 M355.100 54.289 C 355.815 54.378,356.985 54.378,357.700 54.289 C 358.415 54.201,357.830 54.128,356.400 54.128 C 354.970 54.128,354.385 54.201,355.100 54.289 M369.563 54.100 C 368.867 56.001,369.205 56.637,371.688 58.091 C 383.036 64.739,383.535 77.111,372.913 88.472 C 365.180 96.744,362.405 102.412,362.397 109.955 C 362.384 121.303,360.760 124.856,350.768 135.390 C 341.845 144.798,340.240 148.237,340.216 158.000 C 340.202 163.598,340.248 163.925,341.531 167.400 C 344.466 175.347,344.534 175.623,344.568 179.800 C 344.644 189.246,336.756 196.178,323.129 198.637 C 317.545 199.644,316.184 200.019,316.777 200.386 C 317.189 200.641,317.183 200.742,316.745 200.900 C 315.583 201.321,319.352 201.594,327.700 201.695 C 332.485 201.753,336.400 201.653,336.400 201.473 C 336.400 201.293,336.739 201.254,337.154 201.385 C 337.929 201.631,340.000 200.900,340.000 200.380 C 340.000 200.220,340.225 200.097,340.500 200.107 C 342.246 200.172,342.981 199.976,342.400 199.600 C 341.946 199.307,342.122 199.211,343.124 199.206 C 343.903 199.203,344.346 199.036,344.200 198.800 C 344.064 198.580,344.278 198.398,344.676 198.395 C 345.840 198.386,352.394 192.720,352.398 191.720 C 352.399 191.456,352.634 191.096,352.920 190.920 C 354.262 190.095,356.800 185.544,356.800 183.964 C 356.800 183.258,356.967 182.856,357.200 183.000 C 357.446 183.152,357.600 182.479,357.600 181.247 C 357.600 180.147,357.780 179.136,358.000 179.000 C 358.615 178.620,358.538 153.898,357.920 153.280 C 357.576 152.936,357.569 152.800,357.895 152.800 C 358.328 152.800,358.393 152.440,358.422 149.913 C 358.429 149.315,358.607 148.720,358.817 148.589 C 359.028 148.459,359.200 147.911,359.200 147.371 C 359.200 146.376,359.302 146.106,360.625 143.600 C 361.031 142.830,361.327 142.110,361.282 142.000 C 361.237 141.890,361.360 141.800,361.555 141.800 C 361.955 141.800,365.200 137.605,365.200 137.087 C 365.200 136.903,365.361 136.852,365.558 136.974 C 365.755 137.096,366.023 136.917,366.154 136.577 C 366.310 136.169,366.222 136.045,365.895 136.213 C 365.623 136.353,365.959 135.957,366.642 135.334 C 368.000 134.094,369.386 131.424,368.997 130.796 C 368.863 130.578,368.899 130.400,369.079 130.400 C 370.075 130.400,370.588 127.603,370.594 122.140 C 370.597 119.026,370.713 116.548,370.851 116.633 C 370.989 116.718,371.212 115.845,371.347 114.693 C 371.759 111.180,372.074 109.600,372.363 109.600 C 372.515 109.600,372.861 108.986,373.132 108.236 C 373.601 106.939,374.495 105.722,376.851 103.173 C 377.429 102.548,377.825 101.959,377.731 101.864 C 377.636 101.770,378.063 101.486,378.680 101.234 C 380.426 100.519,381.617 99.751,381.367 99.501 C 381.242 99.376,381.516 99.154,381.976 99.008 C 382.435 98.862,382.716 98.588,382.600 98.400 C 382.484 98.212,382.782 97.933,383.263 97.780 C 384.203 97.482,384.870 97.009,385.917 95.900 C 386.280 95.515,386.802 95.200,387.077 95.200 C 388.460 95.200,394.400 86.923,394.400 84.996 C 394.400 84.485,394.601 84.000,394.846 83.918 C 395.101 83.833,395.295 82.831,395.299 81.585 C 395.303 80.090,395.406 79.653,395.624 80.200 C 395.819 80.689,395.955 79.515,395.972 77.185 C 395.994 74.191,395.837 73.049,395.243 71.885 C 394.827 71.068,394.648 70.400,394.847 70.400 C 395.162 70.400,394.547 68.947,394.000 68.400 C 393.890 68.290,393.756 67.789,393.702 67.287 C 393.618 66.499,392.284 64.203,391.560 63.600 C 391.428 63.490,391.104 62.990,390.840 62.489 C 390.574 61.984,390.163 61.699,389.918 61.851 C 389.663 62.008,389.589 61.942,389.742 61.694 C 390.024 61.238,387.339 58.800,386.556 58.800 C 386.301 58.800,385.989 58.403,385.863 57.917 C 385.736 57.432,385.504 57.162,385.348 57.318 C 385.192 57.474,384.771 57.336,384.411 57.010 C 384.052 56.685,383.317 56.369,382.779 56.309 C 382.240 56.249,381.672 56.020,381.515 55.800 C 381.358 55.580,381.088 55.384,380.915 55.365 C 380.742 55.346,380.330 55.232,380.000 55.111 C 377.564 54.219,369.796 53.466,369.563 54.100 M52.800 55.293 C 52.800 55.470,53.295 55.496,53.900 55.351 C 55.481 54.972,55.560 54.760,54.079 54.873 C 53.376 54.926,52.800 55.115,52.800 55.293 M287.024 77.013 C 286.596 77.336,286.427 77.600,286.647 77.600 C 286.867 77.600,287.396 77.336,287.824 77.013 C 288.251 76.690,288.420 76.425,288.200 76.425 C 287.980 76.425,287.451 76.690,287.024 77.013 M269.781 91.700 L 268.200 93.400 269.900 91.819 C 271.481 90.348,271.784 90.000,271.481 90.000 C 271.416 90.000,270.651 90.765,269.781 91.700 M263.634 97.753 L 262.669 99.000 263.813 97.912 C 264.443 97.314,264.877 96.753,264.779 96.665 C 264.680 96.577,264.165 97.067,263.634 97.753 M161.600 134.938 C 161.600 135.234,161.960 135.802,162.400 136.200 C 163.195 136.919,163.196 136.915,162.571 135.662 C 161.893 134.303,161.600 134.084,161.600 134.938 M202.041 151.234 C 199.512 152.771,200.493 155.686,204.766 159.333 C 208.301 162.351,210.678 162.626,211.628 160.126 C 213.195 156.004,205.672 149.025,202.041 151.234 M173.533 163.965 C 173.394 164.348,168.832 165.192,162.400 166.027 C 157.780 166.626,156.800 166.959,156.800 167.926 C 156.800 169.869,150.357 179.085,145.731 183.760 C 136.787 192.798,127.645 195.692,115.400 193.364 C 108.758 192.100,109.810 191.891,101.217 196.191 C 94.879 199.364,92.884 200.175,90.236 200.655 C 88.456 200.978,86.730 201.347,86.400 201.475 C 86.070 201.603,85.351 201.729,84.802 201.754 C 84.202 201.782,83.803 202.040,83.802 202.400 C 83.801 202.730,83.620 203.016,83.400 203.035 C 82.610 203.103,81.383 203.734,80.435 204.560 C 79.856 205.064,79.588 205.160,79.765 204.800 C 79.995 204.331,79.944 204.338,79.530 204.835 C 79.238 205.184,78.812 205.407,78.582 205.329 C 78.352 205.251,77.812 205.515,77.382 205.914 C 76.952 206.314,76.330 206.768,76.000 206.925 C 75.670 207.081,74.860 207.564,74.200 207.998 C 73.540 208.433,72.612 208.960,72.139 209.169 C 71.665 209.379,71.158 209.745,71.011 209.982 C 70.865 210.219,70.603 210.326,70.431 210.219 C 70.258 210.112,69.704 210.464,69.200 211.000 C 68.696 211.536,68.144 211.889,67.974 211.784 C 67.803 211.679,67.314 212.038,66.885 212.583 C 66.457 213.127,65.992 213.459,65.853 213.320 C 65.714 213.181,65.600 213.277,65.600 213.533 C 65.600 213.790,65.399 214.000,65.153 214.000 C 64.907 214.000,64.125 214.495,63.415 215.100 C 62.704 215.705,61.781 216.422,61.362 216.694 C 60.715 217.113,60.755 217.123,61.624 216.764 C 62.571 216.373,62.879 216.562,65.701 219.270 C 72.493 225.790,73.249 232.699,68.670 246.400 C 65.526 255.808,67.475 263.077,74.697 268.877 C 85.590 277.625,87.162 281.364,87.618 299.600 C 88.205 323.068,90.514 327.662,103.200 330.600 C 117.891 334.003,125.637 327.536,130.579 307.742 C 134.350 292.639,137.592 288.512,151.101 281.618 C 164.598 274.730,175.129 250.375,179.993 214.800 C 180.459 211.390,181.009 208.060,181.215 207.400 C 182.705 202.626,183.619 191.870,182.670 190.289 C 182.377 189.800,182.171 188.991,182.214 188.490 C 182.257 187.990,182.136 187.484,181.946 187.367 C 181.756 187.249,181.600 186.544,181.600 185.800 C 181.600 185.056,181.420 184.336,181.200 184.200 C 180.980 184.064,180.800 183.333,180.800 182.576 C 180.800 181.689,180.623 181.235,180.300 181.300 C 179.983 181.363,179.850 181.048,179.935 180.440 C 180.010 179.912,179.892 179.102,179.673 178.640 C 178.797 176.793,178.112 174.562,178.218 173.900 C 178.279 173.515,178.165 173.200,177.965 173.200 C 177.764 173.200,177.600 172.717,177.600 172.126 C 177.600 171.535,177.195 170.606,176.700 170.061 C 176.205 169.517,176.025 169.201,176.300 169.359 C 176.888 169.698,176.953 169.078,176.433 168.095 C 176.231 167.713,175.690 166.545,175.231 165.500 C 174.440 163.701,173.831 163.150,173.533 163.965 M224.900 164.772 C 224.625 165.221,224.400 165.941,224.400 166.371 C 224.400 166.801,224.220 167.264,224.000 167.400 C 223.780 167.536,223.600 168.057,223.600 168.557 C 223.600 169.057,223.465 169.602,223.300 169.767 C 223.135 169.932,222.978 170.232,222.950 170.433 C 222.923 170.635,222.855 170.890,222.800 171.000 C 222.745 171.110,222.662 171.335,222.615 171.500 C 222.569 171.665,222.433 172.070,222.313 172.400 C 222.193 172.730,221.861 173.810,221.575 174.800 C 221.290 175.790,220.939 176.780,220.795 177.000 C 220.652 177.220,220.294 178.480,220.000 179.800 C 219.706 181.120,219.341 182.380,219.189 182.600 C 218.928 182.977,218.550 184.540,218.172 186.800 C 217.794 189.061,217.705 189.435,217.363 190.200 C 216.907 191.220,216.894 197.583,217.343 200.200 C 217.531 201.300,217.946 203.460,218.264 205.000 C 218.582 206.540,219.450 211.670,220.193 216.400 C 226.132 254.206,235.328 274.616,249.800 282.105 C 262.201 288.523,265.286 292.401,268.965 306.200 C 274.553 327.155,280.653 333.208,294.000 331.044 C 309.051 328.604,311.863 323.885,312.258 300.400 C 312.567 281.997,314.430 277.555,325.600 268.593 C 333.002 262.654,334.425 256.069,330.772 244.663 C 326.791 232.234,327.712 225.634,334.322 219.209 C 336.015 217.564,337.580 216.262,337.800 216.316 C 338.020 216.370,337.710 216.006,337.111 215.507 C 335.194 213.911,333.438 212.600,333.216 212.598 C 332.963 212.595,331.273 211.416,329.493 210.000 C 328.801 209.450,328.392 209.270,328.582 209.600 C 328.773 209.930,328.483 209.795,327.939 209.300 C 327.394 208.805,326.818 208.400,326.657 208.400 C 326.497 208.400,325.987 208.046,325.523 207.614 C 325.059 207.181,324.528 206.921,324.344 207.034 C 324.161 207.148,323.783 207.054,323.505 206.827 C 320.975 204.751,318.306 203.193,316.865 202.950 C 316.571 202.901,316.031 202.607,315.665 202.298 C 315.299 201.988,313.042 201.334,310.649 200.844 C 306.820 200.060,305.384 199.495,298.668 196.134 C 290.077 191.834,291.409 192.069,283.000 193.367 C 266.932 195.847,253.265 187.570,244.292 169.924 C 242.536 166.470,243.188 166.804,236.200 165.772 C 228.889 164.692,227.443 164.461,226.400 164.202 C 225.653 164.017,225.273 164.161,224.900 164.772 M131.130 219.515 C 131.210 220.078,130.424 221.849,129.088 224.115 C 127.051 227.571,125.129 230.858,118.282 242.600 C 113.284 251.172,112.713 252.060,111.288 253.486 C 105.507 259.267,96.821 257.166,93.571 249.200 C 91.590 244.345,94.737 232.486,99.200 227.985 C 101.617 225.547,103.338 224.919,117.200 221.415 C 129.870 218.212,130.925 218.068,131.130 219.515 M283.200 221.640 C 298.705 225.509,301.721 227.148,303.897 232.885 C 307.821 243.228,308.241 244.923,307.574 247.718 C 305.409 256.791,294.841 259.797,288.538 253.134 C 287.186 251.705,283.924 246.365,277.139 234.471 C 276.723 233.741,274.766 230.371,272.791 226.984 C 267.185 217.370,266.827 217.554,283.200 221.640 M150.325 226.510 C 151.238 227.610,156.485 259.973,156.305 263.400 C 155.752 273.985,144.081 279.109,136.835 271.949 C 135.329 270.461,131.948 263.669,131.247 260.723 C 129.976 255.384,130.870 253.262,140.563 238.600 C 149.295 225.392,149.346 225.330,150.325 226.510 M258.673 237.700 C 270.865 256.160,271.063 256.991,265.823 267.613 C 260.750 277.898,248.838 277.686,244.538 267.235 C 243.348 264.340,243.355 261.978,244.578 254.990 C 245.116 251.915,246.382 244.540,247.391 238.600 C 249.534 225.986,249.430 226.400,250.432 226.400 C 251.009 226.400,253.145 229.329,258.673 237.700 M119.004 270.500 C 119.136 271.215,119.190 280.170,119.122 290.400 L 119.000 309.000 117.941 311.259 C 113.116 321.550,98.305 321.346,94.410 310.934 C 93.025 307.232,93.126 297.356,94.593 292.979 C 97.282 284.960,103.994 277.341,113.784 271.198 C 117.612 268.795,118.663 268.655,119.004 270.500 M284.977 270.603 C 296.028 277.258,303.528 285.902,305.781 294.584 C 306.754 298.331,306.639 307.731,305.587 310.544 C 301.488 321.500,286.344 321.445,281.916 310.459 C 281.021 308.238,281.004 307.882,280.881 289.514 C 280.732 267.092,280.549 267.936,284.977 270.603 M228.400 287.353 C 228.400 287.683,228.580 288.064,228.800 288.200 C 229.020 288.336,229.200 288.177,229.200 287.847 C 229.200 287.517,229.020 287.136,228.800 287.000 C 228.580 286.864,228.400 287.023,228.400 287.353 M144.792 336.610 C 144.019 337.541,144.571 337.717,145.398 336.802 C 145.797 336.361,145.938 336.000,145.711 336.000 C 145.484 336.000,145.070 336.274,144.792 336.610 "
       stroke="none"
       fill="#7b539b"
       fill-rule="evenodd"
       style="fill:none;fill-opacity:1;stroke:#000000;stroke-opacity:1" />
    <path
       id="path2"
       d="M160.332 45.702 C 155.259 49.970,156.293 62.929,162.215 69.299 C 166.343 73.739,176.123 79.600,179.404 79.600 L 180.400 79.600 180.394 72.700 C 180.383 60.201,177.420 53.845,168.919 48.084 C 163.882 44.671,162.135 44.186,160.332 45.702 M234.297 46.105 C 223.223 52.332,219.621 58.901,219.607 72.900 L 219.600 79.600 220.551 79.600 C 223.449 79.600,231.931 74.885,235.937 71.047 C 241.103 66.098,242.983 61.615,242.721 54.873 C 242.383 46.172,239.505 43.176,234.297 46.105 M30.873 55.279 C 30.819 55.983,30.736 56.583,30.688 56.612 C 21.829 62.102,19.600 65.271,19.600 72.372 C 19.600 78.388,21.579 82.619,27.182 88.581 C 35.420 97.347,37.301 101.623,37.785 112.684 C 38.222 122.662,39.206 124.666,48.514 134.529 C 58.218 144.811,60.399 149.600,59.893 159.519 C 59.671 163.863,59.418 164.882,56.746 172.200 C 51.507 186.550,59.782 195.831,81.000 199.401 C 82.807 199.705,84.614 201.154,83.316 201.257 C 82.922 201.288,83.320 201.427,84.200 201.566 C 85.080 201.705,86.070 201.684,86.400 201.520 C 86.730 201.356,88.456 200.962,90.236 200.645 C 93.806 200.009,110.525 192.066,108.389 192.021 C 106.213 191.975,98.515 187.706,95.789 185.033 C 92.610 181.916,92.482 181.055,94.780 178.273 C 101.667 169.939,109.982 167.604,132.800 167.598 C 142.094 167.595,142.898 167.542,141.854 166.998 C 141.224 166.669,140.496 166.400,140.237 166.400 C 138.799 166.400,128.429 160.701,124.589 157.800 C 113.318 149.287,101.164 131.214,95.804 115.000 C 92.443 104.833,91.465 93.319,93.949 93.158 C 98.536 92.859,108.598 97.499,115.070 102.897 C 124.481 110.747,132.105 120.011,140.018 133.216 C 144.060 139.958,145.038 141.769,149.199 150.200 C 153.115 158.136,156.400 165.825,156.400 167.057 C 156.400 167.577,156.512 167.605,156.990 167.208 C 157.315 166.939,159.880 166.391,162.690 165.992 C 174.507 164.312,174.479 164.322,173.967 162.054 C 173.797 161.300,173.510 160.574,173.329 160.441 C 173.148 160.309,172.989 160.020,172.975 159.800 C 172.961 159.580,172.640 158.717,172.262 157.882 C 171.884 157.048,171.698 156.165,171.849 155.921 C 172.015 155.652,171.941 155.589,171.662 155.762 C 171.368 155.943,171.200 155.738,171.200 155.199 C 171.200 154.146,169.273 150.000,168.784 150.000 C 168.586 150.000,168.523 149.744,168.643 149.431 C 168.763 149.118,168.630 148.443,168.346 147.931 C 168.062 147.419,167.868 146.865,167.915 146.700 C 167.962 146.535,167.820 146.400,167.600 146.400 C 167.380 146.400,167.200 146.040,167.200 145.600 C 167.200 145.160,167.020 144.800,166.800 144.800 C 166.580 144.800,166.400 144.440,166.400 144.000 C 166.400 143.560,166.242 143.200,166.049 143.200 C 165.688 143.200,164.814 141.376,164.654 140.289 C 164.605 139.955,164.326 139.393,164.033 139.040 C 163.741 138.688,163.636 138.400,163.800 138.400 C 163.964 138.400,163.876 138.132,163.604 137.804 C 163.332 137.477,162.952 137.306,162.759 137.425 C 162.567 137.544,162.505 137.391,162.623 137.085 C 162.740 136.779,162.558 136.297,162.218 136.015 C 161.878 135.733,161.600 135.074,161.600 134.551 C 161.600 134.028,161.420 133.600,161.200 133.600 C 160.980 133.600,160.800 133.330,160.800 133.000 C 160.800 132.670,160.428 132.028,159.973 131.573 C 159.518 131.118,159.119 130.384,159.086 129.940 C 159.052 129.497,158.704 128.963,158.312 128.753 C 157.921 128.543,157.600 128.098,157.600 127.762 C 157.600 127.427,157.422 127.263,157.205 127.397 C 156.982 127.535,156.909 127.382,157.037 127.047 C 157.301 126.360,155.471 123.462,155.043 123.890 C 154.886 124.047,154.865 123.895,154.997 123.552 C 155.129 123.209,154.958 122.697,154.618 122.415 C 154.278 122.133,154.000 121.682,154.000 121.412 C 154.000 120.982,153.657 120.481,152.031 118.543 C 151.821 118.291,151.757 117.976,151.891 117.843 C 152.024 117.709,151.952 117.600,151.731 117.600 C 151.510 117.600,151.123 117.150,150.873 116.600 C 150.622 116.050,150.113 115.600,149.742 115.600 C 149.371 115.600,149.174 115.492,149.306 115.361 C 149.619 115.048,147.248 111.200,146.742 111.200 C 146.528 111.200,146.437 111.063,146.541 110.896 C 146.804 110.470,145.944 109.404,145.075 109.078 C 144.676 108.928,144.446 108.648,144.565 108.456 C 144.684 108.264,144.425 107.785,143.991 107.391 C 143.556 106.998,143.200 106.545,143.200 106.385 C 143.200 106.225,142.392 105.218,141.404 104.147 C 140.417 103.076,139.607 101.994,139.604 101.743 C 139.602 101.491,139.330 101.182,139.000 101.055 C 138.670 100.929,138.400 100.569,138.400 100.256 C 138.400 99.943,137.943 99.572,137.384 99.432 C 136.825 99.291,136.464 99.020,136.582 98.828 C 136.701 98.637,134.548 96.183,131.799 93.375 C 128.238 89.738,126.789 88.490,126.760 89.035 C 126.728 89.658,126.672 89.629,126.460 88.876 C 126.317 88.368,126.061 87.967,125.892 87.985 C 125.298 88.047,124.503 86.998,124.718 86.436 C 124.857 86.074,124.766 85.974,124.468 86.158 C 124.193 86.328,124.000 86.208,124.000 85.866 C 124.000 85.547,123.730 85.182,123.400 85.055 C 123.070 84.929,122.800 85.042,122.800 85.308 C 122.800 85.573,122.321 85.118,121.736 84.295 C 121.151 83.473,120.466 82.800,120.215 82.800 C 119.963 82.800,119.142 82.166,118.391 81.391 C 117.640 80.616,116.785 80.074,116.492 80.186 C 116.198 80.299,116.068 80.213,116.203 79.995 C 116.337 79.778,116.231 79.600,115.967 79.600 C 115.703 79.600,114.986 79.076,114.374 78.436 C 113.762 77.796,113.158 77.376,113.031 77.503 C 112.904 77.629,112.800 77.513,112.800 77.243 C 112.800 76.973,112.639 76.852,112.442 76.974 C 112.245 77.096,111.981 76.926,111.854 76.598 C 111.728 76.269,111.349 76.000,111.013 76.000 C 110.676 76.000,110.400 75.809,110.400 75.576 C 110.400 75.343,110.220 75.264,110.000 75.400 C 109.780 75.536,109.600 75.457,109.600 75.224 C 109.600 74.991,109.339 74.800,109.020 74.800 C 108.701 74.800,108.256 74.485,108.032 74.100 C 107.808 73.715,107.619 73.542,107.612 73.716 C 107.605 73.889,107.375 73.841,107.100 73.608 C 105.943 72.629,102.962 70.814,102.500 70.807 C 102.225 70.803,102.000 70.620,102.000 70.400 C 102.000 70.180,101.754 70.000,101.454 70.000 C 101.154 70.000,100.434 69.627,99.854 69.171 C 99.274 68.715,98.800 68.449,98.800 68.579 C 98.800 68.901,95.571 67.257,94.700 66.491 C 94.315 66.153,94.000 66.022,94.000 66.200 C 94.000 66.378,93.685 66.239,93.300 65.890 C 92.536 65.199,92.540 65.200,90.800 65.200 C 90.000 65.200,89.600 65.000,89.600 64.600 C 89.600 64.270,89.276 64.000,88.880 64.000 C 88.484 64.000,87.968 63.808,87.732 63.572 C 87.299 63.139,86.394 62.886,85.076 62.831 C 84.678 62.814,84.454 62.636,84.578 62.435 C 84.702 62.234,84.358 62.119,83.813 62.179 C 83.268 62.239,82.925 62.121,83.051 61.917 C 83.177 61.713,83.037 61.587,82.740 61.636 C 82.443 61.686,81.930 61.623,81.600 61.496 C 80.755 61.173,78.824 60.766,78.702 60.886 C 78.646 60.940,78.155 60.674,77.611 60.293 C 77.067 59.912,76.212 59.600,75.711 59.600 C 75.210 59.600,74.800 59.457,74.800 59.282 C 74.800 59.107,74.130 58.918,73.312 58.863 C 72.494 58.808,71.729 58.636,71.612 58.482 C 71.495 58.327,70.770 58.138,70.000 58.061 C 69.230 57.985,68.510 57.805,68.400 57.661 C 68.193 57.391,67.366 57.223,65.539 57.082 C 64.956 57.037,64.544 56.893,64.624 56.763 C 64.704 56.632,63.844 56.493,62.714 56.453 C 61.583 56.413,60.465 56.237,60.229 56.061 C 59.551 55.556,58.001 55.601,57.994 56.125 C 57.990 56.420,57.850 56.382,57.623 56.024 C 57.384 55.646,56.460 55.425,54.930 55.380 C 53.648 55.342,52.600 55.272,52.600 55.225 C 52.600 54.941,50.405 54.763,46.129 54.700 C 43.450 54.661,41.346 54.488,41.453 54.315 C 41.560 54.142,39.245 54.000,36.309 54.000 L 30.970 54.000 30.873 55.279 M358.961 54.338 C 359.076 54.523,356.882 54.688,354.085 54.702 C 348.170 54.734,345.332 54.992,344.647 55.561 C 344.378 55.784,343.763 55.863,343.279 55.737 C 342.742 55.596,342.400 55.690,342.400 55.977 C 342.400 56.243,342.190 56.317,341.917 56.149 C 341.280 55.755,339.538 55.576,339.755 55.927 C 339.848 56.077,339.536 56.228,339.062 56.262 C 337.110 56.401,335.767 56.649,335.256 56.965 C 334.958 57.149,334.059 57.322,333.257 57.350 C 332.456 57.377,331.575 57.546,331.300 57.724 C 331.025 57.902,330.800 57.944,330.800 57.818 C 330.800 57.692,330.142 57.864,329.339 58.200 C 328.535 58.536,327.800 58.733,327.705 58.638 C 327.610 58.544,326.528 58.812,325.301 59.234 C 324.073 59.656,322.994 59.927,322.902 59.835 C 322.810 59.743,322.142 59.916,321.418 60.218 C 320.694 60.521,319.960 60.640,319.787 60.484 C 319.613 60.328,319.601 60.425,319.759 60.700 C 319.949 61.029,319.774 61.200,319.247 61.200 C 318.807 61.200,318.328 61.392,318.183 61.627 C 318.038 61.862,317.685 61.965,317.398 61.855 C 317.112 61.745,316.545 61.907,316.139 62.215 C 315.732 62.523,315.097 62.780,314.726 62.787 C 314.355 62.794,313.635 62.958,313.126 63.152 C 312.617 63.346,312.040 63.510,311.845 63.518 C 311.649 63.525,311.363 63.736,311.209 63.986 C 311.054 64.236,310.552 64.468,310.092 64.503 C 309.632 64.538,309.288 64.754,309.328 64.983 C 309.367 65.212,309.091 65.348,308.713 65.285 C 308.335 65.222,307.255 65.564,306.313 66.045 C 305.371 66.525,304.510 66.902,304.400 66.883 C 304.290 66.864,304.063 67.218,303.896 67.670 C 303.646 68.345,303.486 68.403,302.996 67.997 C 302.582 67.653,302.400 67.639,302.400 67.951 C 302.400 68.198,302.061 68.400,301.647 68.400 C 301.205 68.400,300.791 68.773,300.647 69.300 C 300.456 69.995,300.320 70.075,300.047 69.653 C 299.762 69.210,299.532 69.268,298.844 69.956 C 298.377 70.423,297.680 70.868,297.297 70.943 C 295.968 71.204,295.200 71.689,295.200 72.266 C 295.200 72.591,295.004 72.726,294.755 72.572 C 294.511 72.421,294.196 72.456,294.055 72.650 C 293.627 73.241,290.587 75.200,290.098 75.200 C 289.846 75.200,289.456 75.515,289.232 75.900 C 289.008 76.285,288.819 76.465,288.812 76.300 C 288.805 76.135,288.440 76.360,288.000 76.800 C 287.560 77.240,286.930 77.600,286.600 77.600 C 286.270 77.600,286.000 77.791,286.000 78.024 C 286.000 78.257,285.789 78.317,285.532 78.158 C 285.219 77.965,285.147 78.085,285.315 78.522 C 285.452 78.881,285.393 79.281,285.183 79.411 C 284.972 79.541,284.800 79.437,284.800 79.179 C 284.800 78.922,284.485 79.084,284.100 79.539 C 283.715 79.994,283.134 80.419,282.810 80.483 C 282.016 80.640,281.200 81.429,281.200 82.038 C 281.200 82.310,281.077 82.411,280.928 82.261 C 280.778 82.111,280.148 82.475,279.528 83.069 C 278.907 83.663,278.400 84.033,278.400 83.891 C 278.400 83.748,277.680 84.337,276.800 85.200 C 275.920 86.063,275.200 86.955,275.200 87.184 C 275.200 87.413,274.919 87.600,274.576 87.600 C 274.233 87.600,274.045 87.750,274.158 87.932 C 274.271 88.115,273.776 88.496,273.057 88.778 C 272.339 89.059,271.575 89.675,271.361 90.145 C 271.146 90.615,270.752 90.955,270.485 90.900 C 270.218 90.845,270.045 91.025,270.100 91.300 C 270.155 91.575,269.975 91.755,269.700 91.700 C 269.425 91.645,269.245 91.825,269.300 92.100 C 269.355 92.375,269.162 92.551,268.870 92.490 C 268.579 92.430,268.440 92.541,268.561 92.737 C 268.853 93.209,267.421 94.488,267.034 94.101 C 266.869 93.935,266.793 94.063,266.867 94.385 C 266.940 94.707,266.595 95.155,266.100 95.380 C 265.605 95.605,265.200 95.999,265.200 96.255 C 265.200 96.511,264.165 97.774,262.900 99.060 C 261.635 100.347,260.345 101.895,260.032 102.500 C 259.720 103.105,259.225 103.600,258.932 103.600 C 258.640 103.600,258.400 103.777,258.400 103.993 C 258.400 104.209,257.762 105.042,256.983 105.845 C 256.203 106.648,255.528 107.489,255.483 107.714 C 255.437 107.938,254.939 108.590,254.375 109.161 C 253.811 109.733,252.915 110.920,252.383 111.800 C 251.851 112.680,251.195 113.670,250.926 114.000 C 250.657 114.330,249.446 116.130,248.234 118.000 C 247.021 119.870,245.843 121.617,245.615 121.883 C 245.387 122.149,245.200 122.554,245.200 122.783 C 245.200 123.012,245.034 123.200,244.831 123.200 C 244.444 123.200,243.368 125.957,243.529 126.534 C 243.581 126.718,243.258 126.964,242.811 127.081 C 242.067 127.276,241.844 127.765,241.892 129.096 C 241.902 129.368,241.750 129.493,241.555 129.372 C 241.360 129.251,241.200 129.343,241.200 129.576 C 241.200 129.809,240.826 130.374,240.369 130.831 C 239.912 131.288,239.636 131.918,239.757 132.231 C 239.884 132.564,239.731 132.800,239.387 132.800 C 239.064 132.800,238.800 133.160,238.800 133.600 C 238.800 134.040,238.640 134.400,238.443 134.400 C 238.247 134.400,237.981 134.805,237.852 135.300 C 237.722 135.795,237.219 136.830,236.733 137.600 C 235.790 139.093,235.685 139.351,235.511 140.600 C 235.450 141.040,235.085 141.749,234.700 142.175 C 234.315 142.602,234.000 143.187,234.000 143.475 C 234.000 143.764,233.820 144.000,233.600 144.000 C 233.380 144.000,233.200 144.360,233.200 144.800 C 233.200 145.240,233.020 145.600,232.800 145.600 C 232.580 145.600,232.400 146.230,232.400 147.000 C 232.400 147.871,232.207 148.400,231.888 148.400 C 231.388 148.400,230.465 150.195,230.139 151.800 C 230.050 152.240,229.816 152.655,229.620 152.723 C 229.423 152.791,229.034 153.736,228.755 154.823 C 228.477 155.910,228.119 156.800,227.960 156.800 C 227.801 156.800,227.720 157.250,227.780 157.800 C 227.841 158.350,227.738 158.800,227.553 158.800 C 227.367 158.800,227.102 159.250,226.964 159.800 C 226.826 160.350,226.523 160.800,226.290 160.800 C 226.057 160.800,225.979 160.913,226.117 161.051 C 226.255 161.189,226.092 161.835,225.755 162.488 C 225.417 163.140,225.199 163.714,225.271 163.763 C 225.675 164.039,228.857 164.789,230.400 164.972 C 237.588 165.821,242.614 166.804,243.089 167.454 C 243.566 168.106,243.600 168.099,243.600 167.345 C 243.600 164.938,253.657 143.578,257.836 137.109 C 258.366 136.288,258.800 135.542,258.800 135.449 C 258.800 134.292,267.901 121.141,272.952 115.000 C 283.414 102.279,302.972 89.932,306.720 93.680 C 307.321 94.281,307.368 101.278,306.789 103.923 C 306.562 104.955,306.195 106.700,305.972 107.800 C 302.698 123.956,289.182 146.686,277.200 156.186 C 271.865 160.416,266.512 163.593,261.400 165.563 C 255.914 167.677,255.643 167.578,267.000 167.624 C 272.720 167.648,277.760 167.714,278.200 167.771 C 278.640 167.828,280.530 168.004,282.400 168.160 C 294.335 169.161,306.639 175.861,306.485 181.276 C 306.397 184.378,295.876 191.915,291.485 192.021 C 289.222 192.076,306.160 199.913,310.429 200.786 C 312.723 201.255,314.934 201.823,315.342 202.049 C 315.863 202.337,316.005 202.332,315.818 202.030 C 315.654 201.764,315.983 201.589,316.676 201.572 C 317.665 201.547,317.704 201.502,317.000 201.200 C 316.461 200.968,316.396 200.845,316.800 200.822 C 317.311 200.793,317.316 200.734,316.831 200.428 C 316.173 200.011,317.317 199.686,323.129 198.637 C 340.327 195.533,348.063 185.371,343.254 172.200 C 340.081 163.510,340.235 164.236,340.233 158.000 C 340.228 148.253,341.832 144.812,350.768 135.390 C 360.760 124.856,362.384 121.303,362.397 109.955 C 362.405 102.412,365.180 96.744,372.913 88.472 C 383.538 77.107,383.036 64.739,371.680 58.087 C 369.291 56.687,369.169 56.543,369.336 55.305 L 369.512 54.000 364.132 54.000 C 361.174 54.000,358.847 54.152,358.961 54.338 M53.628 75.367 C 60.163 78.755,67.834 87.802,77.072 103.015 C 83.323 113.311,83.212 114.200,75.800 113.175 C 62.842 111.381,51.515 103.335,45.693 91.787 C 39.502 79.508,43.933 70.341,53.628 75.367 M353.599 74.600 C 364.495 80.234,349.783 105.331,332.200 111.105 C 320.745 114.866,316.916 114.237,319.615 109.037 C 331.106 86.888,346.736 71.050,353.599 74.600 M28.428 113.900 C 28.533 115.015,29.068 115.720,29.317 115.071 C 29.459 114.702,29.390 114.400,29.164 114.400 C 28.938 114.400,28.864 114.220,29.000 114.000 C 29.136 113.780,29.057 113.600,28.824 113.600 C 28.591 113.600,28.413 113.735,28.428 113.900 M79.484 124.884 C 82.977 126.391,84.694 128.187,92.400 138.396 C 94.270 140.874,95.980 143.103,96.200 143.351 C 102.879 150.856,102.180 151.333,84.800 151.111 C 69.085 150.910,66.570 149.953,63.103 142.862 C 57.864 132.143,68.712 120.238,79.484 124.884 M330.973 125.405 C 339.233 129.183,340.682 139.905,333.877 146.897 C 330.195 150.681,327.026 151.296,312.104 151.124 C 298.499 150.968,298.212 150.810,302.204 145.686 C 303.183 144.429,305.560 141.330,307.485 138.800 C 309.410 136.270,311.087 134.110,311.212 134.000 C 311.337 133.890,311.877 133.170,312.412 132.400 C 317.768 124.698,324.160 122.289,330.973 125.405 M307.693 245.600 C 307.693 246.370,307.775 246.685,307.876 246.300 C 307.976 245.915,307.976 245.285,307.876 244.900 C 307.775 244.515,307.693 244.830,307.693 245.600 "
       stroke="none"
       fill="#9b74c3"
       fill-rule="evenodd"
       style="fill:none;fill-opacity:1;stroke:#000000;stroke-opacity:1" />
    <path
       id="path3"
       d="M160.600 43.266 C 152.501 47.734,153.817 64.468,162.907 72.601 C 167.400 76.622,177.418 82.000,180.414 82.000 C 183.338 82.000,183.247 66.222,180.281 58.923 C 176.870 50.529,164.817 40.939,160.600 43.266 M234.425 44.019 C 223.083 49.385,218.304 57.189,217.756 71.243 C 217.294 83.080,217.676 83.478,225.921 79.736 C 238.929 73.831,245.401 65.060,244.696 54.294 C 244.101 45.193,240.197 41.288,234.425 44.019 M166.393 45.424 C 176.721 50.851,180.880 58.119,181.411 71.668 C 181.800 81.578,181.673 81.766,176.110 79.574 C 160.471 73.412,152.806 60.867,157.307 48.800 C 159.141 43.884,161.673 42.944,166.393 45.424 M240.324 44.998 C 245.489 49.344,244.982 61.289,239.313 68.831 C 234.390 75.380,220.026 83.024,218.783 79.756 C 218.053 77.835,218.971 63.444,220.014 60.457 C 223.339 50.940,235.965 41.329,240.324 44.998 M4.137 76.600 C 4.139 78.360,4.209 79.030,4.293 78.089 C 4.378 77.149,4.377 75.709,4.291 74.889 C 4.205 74.070,4.136 74.840,4.137 76.600 M127.200 88.525 C 127.200 88.594,127.785 89.179,128.500 89.825 L 129.800 91.000 128.625 89.700 C 127.530 88.488,127.200 88.216,127.200 88.525 M389.618 92.900 L 388.303 94.600 389.797 93.079 C 390.618 92.242,391.210 91.477,391.112 91.379 C 391.014 91.281,390.342 91.965,389.618 92.900 M370.948 121.600 C 370.948 123.910,371.014 124.855,371.095 123.700 C 371.176 122.545,371.176 120.655,371.095 119.500 C 371.014 118.345,370.948 119.290,370.948 121.600 M202.400 149.481 C 198.170 151.021,198.617 155.566,203.425 159.906 C 208.163 164.182,212.213 164.134,213.028 159.794 C 213.904 155.121,206.539 147.975,202.400 149.481 M206.671 151.733 C 211.104 154.026,213.366 160.012,210.400 161.600 C 207.878 162.949,200.800 156.989,200.800 153.516 C 200.800 150.701,203.241 149.960,206.671 151.733 M41.506 162.112 C 41.565 168.100,41.666 173.990,41.731 175.200 C 41.796 176.410,41.870 171.820,41.896 165.000 C 41.922 158.180,41.821 152.290,41.672 151.912 C 41.522 151.534,41.448 156.124,41.506 162.112 M217.467 188.267 C 217.320 188.413,217.200 188.893,217.200 189.333 C 217.200 190.302,217.706 189.894,217.874 188.790 C 218.002 187.956,217.903 187.830,217.467 188.267 M216.509 194.000 C 216.509 194.990,216.587 195.395,216.682 194.900 C 216.778 194.405,216.778 193.595,216.682 193.100 C 216.587 192.605,216.509 193.010,216.509 194.000 M350.181 194.500 L 348.600 196.200 350.300 194.619 C 351.881 193.148,352.184 192.800,351.881 192.800 C 351.816 192.800,351.051 193.565,350.181 194.500 M182.469 201.014 C 182.181 202.986,181.700 205.500,181.400 206.600 C 181.101 207.700,180.471 211.390,180.001 214.800 C 175.075 250.507,164.598 274.729,151.101 281.618 C 137.592 288.512,134.350 292.639,130.579 307.742 C 125.637 327.536,117.891 334.003,103.200 330.600 C 90.514 327.662,88.205 323.068,87.618 299.600 C 87.162 281.364,85.590 277.625,74.697 268.877 C 67.475 263.077,65.526 255.808,68.670 246.400 C 73.243 232.716,72.490 225.787,65.724 219.293 C 62.710 216.400,62.689 216.388,61.358 216.870 C 60.622 217.136,60.077 217.410,60.147 217.480 C 60.217 217.550,58.412 219.449,56.137 221.700 C 53.862 223.952,52.000 225.989,52.000 226.227 C 52.000 226.466,51.550 227.083,51.000 227.600 C 49.949 228.587,49.648 229.425,50.500 228.994 C 50.775 228.855,50.640 229.037,50.200 229.399 C 49.760 229.760,49.452 230.244,49.515 230.473 C 49.578 230.702,49.308 231.153,48.915 231.475 C 48.522 231.796,48.417 231.950,48.683 231.816 C 49.027 231.644,49.008 231.878,48.618 232.631 C 48.201 233.434,48.043 236.302,47.960 244.544 C 47.825 257.945,47.829 258.232,48.163 260.200 C 48.312 261.080,48.472 262.250,48.517 262.800 C 48.563 263.350,48.730 263.898,48.890 264.017 C 49.049 264.137,49.246 264.587,49.328 265.017 C 49.725 267.120,50.188 268.434,51.472 271.100 C 52.241 272.695,52.954 274.000,53.058 274.000 C 53.162 274.000,53.133 273.775,52.994 273.500 C 52.855 273.225,53.018 273.360,53.357 273.800 C 53.696 274.240,54.159 274.817,54.386 275.083 C 54.614 275.349,54.800 275.747,54.800 275.967 C 54.800 276.403,55.957 277.783,58.900 280.859 C 59.945 281.951,60.800 283.023,60.800 283.241 C 60.800 283.460,61.295 284.109,61.900 284.685 C 62.505 285.260,62.730 285.598,62.400 285.435 C 62.070 285.272,62.205 285.497,62.700 285.934 C 63.668 286.788,63.919 287.431,63.100 286.959 C 62.825 286.801,63.005 287.117,63.500 287.661 C 63.995 288.206,64.400 289.114,64.400 289.680 C 64.400 290.246,64.661 291.211,64.980 291.826 C 65.298 292.440,65.468 293.091,65.356 293.271 C 65.244 293.452,65.343 293.600,65.576 293.600 C 65.809 293.600,66.000 294.320,66.000 295.200 C 66.000 296.080,66.150 296.800,66.333 296.800 C 66.517 296.800,66.667 297.062,66.667 297.382 C 66.667 297.703,66.509 297.868,66.317 297.749 C 66.004 297.556,66.167 298.851,66.644 300.361 C 66.742 300.670,66.821 307.277,66.821 315.044 C 66.821 323.889,66.968 329.256,67.215 329.409 C 67.431 329.543,67.604 330.226,67.597 330.926 C 67.591 331.627,67.589 332.635,67.592 333.167 C 67.595 333.699,67.890 334.458,68.247 334.852 C 68.605 335.247,68.788 335.854,68.655 336.200 C 68.515 336.566,68.661 336.925,69.004 337.057 C 69.329 337.182,69.509 337.423,69.404 337.593 C 69.206 337.913,69.874 339.314,71.218 341.400 C 71.643 342.060,72.117 342.862,72.270 343.182 C 72.640 343.955,73.627 345.163,74.537 345.957 C 74.942 346.311,75.434 347.010,75.631 347.510 C 75.827 348.011,76.306 348.540,76.694 348.687 C 77.082 348.833,77.971 349.538,78.669 350.252 C 79.367 350.967,80.657 352.005,81.536 352.559 C 82.414 353.114,83.249 353.755,83.390 353.984 C 83.757 354.578,84.498 354.501,84.194 353.900 C 84.055 353.625,84.237 353.760,84.599 354.200 C 84.960 354.640,85.444 354.948,85.673 354.885 C 85.902 354.822,86.304 355.063,86.566 355.421 C 86.827 355.779,87.302 356.019,87.621 355.954 C 87.939 355.890,88.785 356.149,89.500 356.529 C 90.215 356.909,90.800 357.090,90.800 356.930 C 90.800 356.771,91.016 356.856,91.280 357.120 C 91.912 357.752,92.530 357.738,92.147 357.100 C 91.907 356.701,91.971 356.700,92.460 357.097 C 92.797 357.370,93.192 357.475,93.337 357.330 C 93.482 357.185,93.600 357.287,93.600 357.557 C 93.600 357.827,93.768 357.944,93.972 357.817 C 94.177 357.691,94.458 357.770,94.596 357.993 C 94.734 358.217,95.242 358.387,95.724 358.372 C 96.569 358.345,96.571 358.331,95.800 358.000 C 95.029 357.669,95.031 357.655,95.876 357.628 C 96.358 357.613,96.864 357.780,97.000 358.000 C 97.494 358.799,106.876 358.477,107.987 357.624 C 108.721 357.060,109.162 356.966,109.707 357.257 C 110.457 357.658,112.800 356.935,112.800 356.302 C 112.800 356.136,113.115 356.003,113.500 356.006 C 114.098 356.011,114.113 356.069,113.600 356.400 C 113.270 356.613,113.189 356.791,113.420 356.794 C 113.651 356.797,114.033 356.607,114.270 356.370 C 114.643 355.997,115.696 355.720,117.500 355.522 C 117.775 355.491,118.000 355.297,118.000 355.091 C 118.000 354.884,118.270 354.818,118.600 354.945 C 118.930 355.071,119.200 355.001,119.200 354.787 C 119.200 354.574,119.718 354.400,120.351 354.400 C 120.984 354.400,121.721 354.136,121.989 353.813 C 122.257 353.490,122.594 353.258,122.738 353.297 C 123.192 353.420,126.159 351.904,127.165 351.034 C 127.695 350.575,128.002 350.420,127.848 350.689 C 127.693 350.957,128.287 350.793,129.167 350.323 C 130.047 349.854,130.696 349.355,130.609 349.215 C 130.523 349.075,130.819 348.731,131.268 348.451 C 131.938 348.032,132.029 348.035,131.777 348.470 C 131.408 349.109,133.662 347.213,134.119 346.500 C 134.295 346.225,134.618 346.000,134.837 346.000 C 135.292 346.000,136.048 345.427,137.476 344.000 C 138.027 343.450,138.685 342.992,138.939 342.982 C 139.192 342.972,139.355 342.747,139.300 342.482 C 139.245 342.217,139.411 342.000,139.669 342.000 C 140.251 342.000,144.139 338.058,144.509 337.094 C 144.658 336.706,145.189 336.231,145.690 336.039 C 146.574 335.700,149.492 332.800,148.948 332.800 C 148.799 332.800,149.020 332.480,149.439 332.088 C 150.886 330.735,152.598 328.677,152.000 329.011 C 151.670 329.195,151.985 328.738,152.700 327.997 C 153.415 327.255,154.000 326.407,154.000 326.112 C 154.000 325.816,154.270 325.471,154.600 325.345 C 154.930 325.218,155.200 324.840,155.200 324.504 C 155.200 324.168,155.553 323.588,155.985 323.213 C 156.416 322.839,156.956 322.098,157.184 321.566 C 157.697 320.369,158.388 319.285,159.300 318.246 C 159.685 317.808,160.000 317.211,160.000 316.919 C 160.000 316.424,160.750 314.850,161.200 314.400 C 161.514 314.086,163.201 310.755,163.194 310.462 C 163.191 310.318,163.013 310.470,162.800 310.800 C 162.556 311.177,162.410 311.219,162.406 310.914 C 162.403 310.647,162.760 310.235,163.200 310.000 C 163.777 309.691,164.002 309.158,164.006 308.086 C 164.011 306.979,164.111 306.753,164.400 307.200 C 164.715 307.688,164.789 307.636,164.794 306.924 C 164.797 306.442,164.996 305.926,165.235 305.778 C 165.474 305.631,165.583 305.178,165.477 304.773 C 165.371 304.369,165.530 303.714,165.830 303.319 C 166.129 302.923,166.383 302.060,166.393 301.400 C 166.408 300.476,166.501 300.338,166.800 300.800 C 167.187 301.398,167.421 300.318,167.221 298.860 C 167.180 298.563,167.339 298.438,167.573 298.583 C 167.821 298.737,168.000 298.512,168.000 298.047 C 168.000 297.607,168.180 297.136,168.400 297.000 C 168.620 296.864,168.800 296.324,168.800 295.800 C 168.800 295.276,168.980 294.736,169.200 294.600 C 169.420 294.464,169.600 293.924,169.600 293.400 C 169.600 292.876,169.780 292.336,170.000 292.200 C 170.220 292.064,170.400 291.549,170.400 291.056 C 170.400 290.563,170.584 289.976,170.810 289.750 C 171.035 289.525,171.244 288.686,171.274 287.887 C 171.306 287.021,171.492 286.533,171.732 286.682 C 171.973 286.830,172.034 286.667,171.885 286.277 C 171.747 285.917,171.896 285.361,172.217 285.040 C 172.937 284.320,173.002 283.051,172.300 283.406 C 172.025 283.545,172.089 283.420,172.442 283.128 C 173.200 282.501,173.640 281.257,173.687 279.614 C 173.706 278.962,173.874 278.522,174.060 278.637 C 174.376 278.832,174.580 277.654,174.430 276.500 C 174.394 276.225,174.537 276.000,174.747 276.000 C 174.957 276.000,175.078 275.685,175.014 275.300 C 174.951 274.915,175.159 274.303,175.476 273.939 C 175.794 273.576,176.020 273.036,175.979 272.739 C 175.782 271.301,176.036 269.575,176.410 269.806 C 176.635 269.945,176.794 269.911,176.763 269.730 C 176.591 268.743,176.846 266.781,177.123 266.953 C 177.301 267.062,177.490 266.414,177.543 265.513 C 177.596 264.611,177.827 263.523,178.056 263.096 C 178.285 262.668,178.384 261.983,178.277 261.574 C 178.170 261.164,178.334 260.621,178.641 260.366 C 179.335 259.790,179.383 259.043,178.700 259.453 C 178.328 259.677,178.306 259.606,178.615 259.177 C 178.843 258.860,179.087 258.060,179.156 257.400 C 179.225 256.740,179.453 256.094,179.662 255.963 C 179.871 255.833,180.011 255.563,179.974 255.363 C 179.786 254.368,180.041 252.378,180.333 252.559 C 180.517 252.672,180.667 252.511,180.667 252.200 C 180.667 251.889,180.517 251.728,180.333 251.841 C 179.876 252.124,179.911 251.449,180.379 250.980 C 180.587 250.771,180.801 249.854,180.854 248.942 C 180.916 247.892,181.119 247.348,181.409 247.459 C 181.661 247.555,181.867 247.357,181.867 247.017 C 181.867 246.678,181.762 246.400,181.633 246.400 C 180.900 246.400,181.490 213.573,182.355 206.269 C 183.292 198.359,183.367 194.878,182.469 201.014 M216.941 200.400 C 218.237 208.769,218.550 214.845,218.504 230.800 C 218.466 244.069,218.566 247.622,219.001 248.507 C 219.377 249.271,219.399 249.531,219.073 249.348 C 218.753 249.169,218.762 249.257,219.100 249.621 C 219.384 249.927,219.617 251.292,219.640 252.780 C 219.669 254.699,219.765 255.133,220.000 254.400 C 220.342 253.331,220.581 254.746,220.468 257.172 C 220.443 257.707,220.564 258.337,220.737 258.572 C 220.910 258.808,221.101 259.720,221.161 260.600 C 221.221 261.480,221.502 262.470,221.786 262.800 C 222.069 263.130,222.249 263.715,222.185 264.101 C 222.122 264.487,222.401 265.477,222.806 266.301 C 223.251 267.209,223.397 267.948,223.176 268.175 C 222.954 268.402,223.069 268.835,223.467 269.275 C 223.829 269.674,223.984 270.000,223.813 270.000 C 223.642 270.000,223.713 270.254,223.970 270.564 C 224.277 270.934,224.299 271.215,224.034 271.379 C 223.783 271.534,223.930 272.163,224.425 273.044 C 224.862 273.822,225.065 274.364,224.877 274.247 C 224.688 274.131,224.533 274.289,224.533 274.600 C 224.533 274.911,224.683 275.072,224.867 274.959 C 225.186 274.761,225.368 275.640,225.229 276.706 C 225.192 276.984,225.427 277.589,225.751 278.051 C 226.075 278.514,226.233 279.171,226.102 279.512 C 225.927 279.967,226.015 280.040,226.432 279.789 C 226.888 279.514,226.881 279.595,226.400 280.200 C 226.050 280.639,226.009 280.828,226.300 280.653 C 226.661 280.436,226.800 280.734,226.800 281.727 C 226.800 282.483,227.068 283.324,227.396 283.596 C 227.723 283.868,227.889 284.256,227.764 284.458 C 227.639 284.661,227.911 285.461,228.368 286.236 C 229.216 287.673,229.612 289.656,228.800 288.400 C 228.529 287.980,228.410 287.954,228.406 288.313 C 228.403 288.594,228.659 288.924,228.975 289.046 C 229.291 289.167,229.452 289.521,229.332 289.833 C 229.212 290.145,229.293 290.400,229.511 290.400 C 229.728 290.400,230.018 290.715,230.154 291.100 C 230.289 291.485,230.514 292.050,230.652 292.356 C 230.801 292.685,230.734 292.806,230.487 292.654 C 230.254 292.510,230.112 292.681,230.165 293.043 C 230.217 293.399,230.562 293.859,230.930 294.065 C 231.299 294.271,231.600 294.621,231.600 294.843 C 231.600 295.066,231.401 295.124,231.159 294.974 C 230.916 294.824,231.037 295.190,231.429 295.787 C 231.820 296.385,232.195 297.262,232.261 297.737 C 232.496 299.406,232.646 299.979,232.922 300.255 C 233.075 300.408,233.200 300.833,233.200 301.199 C 233.200 301.565,233.641 302.736,234.181 303.802 C 234.720 304.867,235.052 305.915,234.919 306.131 C 234.784 306.350,234.881 306.397,235.138 306.238 C 235.433 306.056,235.600 306.265,235.600 306.815 C 235.600 307.289,235.995 308.232,236.479 308.910 C 236.962 309.589,237.142 310.011,236.879 309.849 C 236.615 309.686,236.400 309.742,236.400 309.973 C 236.400 310.204,236.760 310.618,237.200 310.893 C 238.064 311.433,238.323 312.211,237.500 311.794 C 237.225 311.655,237.327 311.808,237.727 312.134 C 238.126 312.460,238.396 312.828,238.327 312.951 C 238.257 313.074,238.515 313.542,238.900 313.992 C 239.285 314.441,239.604 315.212,239.609 315.705 C 239.614 316.197,239.970 317.050,240.400 317.600 C 240.830 318.150,241.186 318.816,241.191 319.080 C 241.196 319.344,241.515 319.744,241.900 319.968 C 242.285 320.192,242.454 320.381,242.274 320.388 C 242.095 320.395,242.680 321.443,243.574 322.717 C 244.469 323.992,245.200 325.263,245.200 325.541 C 245.200 325.819,245.372 325.941,245.583 325.811 C 245.794 325.680,246.268 326.165,246.638 326.887 C 247.648 328.862,249.422 331.049,252.945 334.663 C 254.695 336.457,256.287 338.212,256.483 338.563 C 256.679 338.913,257.056 339.202,257.320 339.205 C 257.584 339.208,258.211 339.845,258.714 340.620 C 259.216 341.396,259.806 341.920,260.024 341.785 C 260.241 341.651,260.370 341.772,260.310 342.056 C 260.249 342.339,260.605 342.755,261.100 342.980 C 261.595 343.205,262.000 343.527,262.000 343.695 C 262.000 343.863,262.165 344.000,262.366 344.000 C 262.567 344.000,263.380 344.630,264.173 345.400 C 264.966 346.170,265.892 346.800,266.231 346.800 C 266.570 346.800,266.748 346.961,266.626 347.157 C 266.505 347.354,266.862 347.629,267.419 347.769 C 267.977 347.909,268.336 348.179,268.219 348.370 C 268.008 348.711,268.833 349.208,269.993 349.439 C 270.319 349.503,270.649 349.746,270.726 349.978 C 270.803 350.210,271.100 350.400,271.384 350.400 C 271.669 350.400,272.119 350.661,272.384 350.981 C 272.997 351.720,276.892 353.677,276.522 353.060 C 276.363 352.795,276.520 352.822,276.893 353.124 C 277.436 353.564,278.385 353.815,280.100 353.972 C 280.265 353.988,280.400 354.240,280.400 354.533 C 280.400 355.058,280.609 355.125,282.593 355.242 C 283.163 355.275,283.477 355.476,283.330 355.713 C 283.171 355.971,283.399 356.041,283.937 355.900 C 284.412 355.776,284.800 355.838,284.800 356.037 C 284.800 356.237,284.935 356.371,285.100 356.336 C 285.265 356.302,285.723 356.414,286.117 356.586 C 286.512 356.758,286.947 356.786,287.085 356.649 C 287.222 356.511,287.656 356.688,288.048 357.043 C 288.533 357.482,289.276 357.639,290.380 357.533 C 291.271 357.448,292.000 357.538,292.000 357.732 C 292.000 357.927,292.270 357.982,292.600 357.855 C 292.930 357.729,293.200 357.761,293.200 357.927 C 293.200 358.094,293.564 358.257,294.009 358.291 C 294.453 358.324,294.713 358.182,294.585 357.976 C 294.457 357.769,294.533 357.600,294.753 357.600 C 294.973 357.600,295.268 357.786,295.408 358.013 C 295.806 358.656,305.614 358.430,305.866 357.771 C 305.976 357.485,306.324 357.349,306.638 357.470 C 306.953 357.591,307.470 357.474,307.788 357.210 C 308.105 356.947,308.540 356.840,308.755 356.972 C 308.969 357.105,309.260 357.027,309.400 356.800 C 309.540 356.573,309.832 356.496,310.048 356.630 C 310.474 356.893,313.023 355.810,313.396 355.207 C 313.522 355.002,313.919 354.948,314.278 355.085 C 314.653 355.229,314.829 355.170,314.691 354.948 C 314.560 354.735,314.819 354.331,315.268 354.051 C 315.938 353.632,316.028 353.635,315.773 354.070 C 315.602 354.362,315.823 354.285,316.264 353.899 C 316.704 353.514,317.155 353.288,317.264 353.398 C 317.374 353.507,317.886 353.148,318.401 352.598 C 318.917 352.049,319.514 351.600,319.728 351.600 C 319.941 351.600,320.495 351.233,320.958 350.784 C 321.421 350.335,322.259 349.570,322.820 349.084 C 323.380 348.598,323.470 348.463,323.020 348.785 C 322.569 349.106,323.100 348.463,324.200 347.355 C 326.553 344.985,327.600 343.626,327.600 342.942 C 327.600 342.670,327.808 342.319,328.062 342.162 C 328.367 341.973,328.414 342.054,328.200 342.400 C 327.986 342.746,328.033 342.827,328.338 342.638 C 328.592 342.481,328.800 341.913,328.800 341.376 C 328.800 340.839,329.010 340.400,329.267 340.400 C 329.523 340.400,329.621 340.288,329.484 340.151 C 329.347 340.013,329.654 339.338,330.166 338.651 C 330.679 337.963,331.191 336.950,331.305 336.400 C 331.419 335.850,331.785 334.545,332.117 333.501 C 332.449 332.456,332.559 331.702,332.361 331.824 C 332.162 331.947,332.000 331.851,332.000 331.611 C 332.000 331.371,332.275 331.069,332.612 330.940 C 332.986 330.797,333.135 330.425,332.996 329.986 C 332.870 329.591,332.955 329.152,333.184 329.010 C 333.413 328.869,333.600 328.573,333.600 328.353 C 333.600 328.133,333.465 328.036,333.300 328.138 C 332.981 328.336,333.037 300.944,333.358 299.973 C 333.947 298.194,334.301 295.362,333.983 294.979 C 333.762 294.713,333.838 294.239,334.178 293.752 C 334.484 293.316,334.859 292.291,335.012 291.475 C 335.165 290.659,335.450 289.893,335.645 289.772 C 335.840 289.651,336.000 289.113,336.000 288.576 C 336.000 288.039,336.180 287.600,336.400 287.600 C 336.620 287.600,336.800 287.139,336.800 286.576 C 336.800 285.996,336.973 285.660,337.200 285.800 C 337.420 285.936,337.600 285.756,337.600 285.400 C 337.600 285.044,337.775 284.861,337.988 284.993 C 338.202 285.125,338.486 284.795,338.621 284.260 C 338.755 283.725,339.390 282.784,340.032 282.169 C 340.675 281.554,341.200 280.803,341.200 280.502 C 341.200 280.200,341.381 280.065,341.603 280.202 C 341.824 280.339,342.125 280.124,342.270 279.725 C 342.415 279.326,343.401 278.123,344.460 277.050 C 345.519 275.978,346.301 274.963,346.197 274.795 C 346.094 274.628,346.296 274.253,346.646 273.962 C 346.997 273.671,347.447 273.065,347.647 272.616 C 347.846 272.167,348.364 271.215,348.797 270.500 C 349.230 269.785,349.470 269.200,349.330 269.200 C 349.190 269.200,349.419 268.809,349.838 268.331 C 350.328 267.772,350.386 267.579,350.000 267.790 C 349.512 268.056,349.494 268.017,349.900 267.579 C 350.175 267.282,350.400 266.615,350.400 266.096 C 350.400 265.554,350.574 265.260,350.810 265.406 C 351.035 265.545,351.194 265.511,351.163 265.330 C 350.919 263.927,351.258 261.987,351.700 262.253 C 351.991 262.428,351.950 262.239,351.600 261.800 C 351.249 261.359,351.208 261.171,351.501 261.347 C 352.284 261.818,352.153 233.425,351.369 232.774 C 351.061 232.519,350.915 232.138,351.044 231.928 C 351.174 231.718,350.963 231.315,350.575 231.031 C 350.150 230.720,349.970 230.255,350.122 229.858 C 350.285 229.435,350.169 229.200,349.800 229.200 C 349.467 229.200,349.317 228.960,349.444 228.631 C 349.570 228.301,349.298 227.866,348.797 227.598 C 348.321 227.344,348.026 227.041,348.142 226.925 C 348.257 226.809,348.003 226.340,347.576 225.882 C 347.149 225.424,346.800 224.802,346.800 224.501 C 346.800 224.199,346.620 224.064,346.400 224.200 C 346.180 224.336,346.000 224.236,346.000 223.977 C 346.000 223.410,340.746 217.986,340.403 218.198 C 340.270 218.280,339.900 218.182,339.581 217.980 C 339.078 217.661,339.080 217.610,339.600 217.592 C 339.988 217.578,339.791 217.237,339.043 216.625 L 337.886 215.679 334.558 218.962 C 327.677 225.751,326.744 232.086,330.772 244.663 C 334.425 256.069,333.002 262.654,325.600 268.593 C 314.430 277.555,312.567 281.997,312.258 300.400 C 311.863 323.885,309.051 328.604,294.000 331.044 C 280.653 333.208,274.553 327.155,268.965 306.200 C 265.286 292.401,262.201 288.523,249.800 282.105 C 235.329 274.616,226.156 254.261,220.189 216.400 C 219.444 211.670,218.490 206.041,218.069 203.890 C 217.649 201.740,217.297 199.880,217.286 199.757 C 217.275 199.634,217.145 199.413,216.995 199.267 C 216.846 199.120,216.821 199.630,216.941 200.400 "
       stroke="none"
       fill="#543c74"
       fill-rule="evenodd"
       style="fill:none;fill-opacity:1;stroke:#000000;stroke-opacity:1" />
    <path
       id="path4"
       d="M160.713 38.616 C 160.555 38.777,160.105 38.941,159.713 38.981 C 157.226 39.237,152.400 44.063,152.400 46.295 C 152.400 46.719,152.271 47.195,152.114 47.353 C 151.007 48.459,150.209 60.387,151.200 61.000 C 151.420 61.136,151.600 61.856,151.600 62.600 C 151.600 63.344,151.780 64.064,152.000 64.200 C 152.220 64.336,152.400 64.791,152.400 65.211 C 152.400 67.718,159.324 76.387,163.100 78.608 C 163.815 79.028,164.400 79.514,164.400 79.686 C 164.400 79.859,164.593 80.000,164.828 80.000 C 165.063 80.000,166.008 80.502,166.928 81.116 C 168.499 82.164,171.333 83.600,173.600 84.497 C 175.895 85.405,175.781 85.052,176.090 92.242 C 176.467 101.008,177.471 112.604,177.931 113.499 C 178.130 113.884,178.208 114.435,178.105 114.723 C 177.707 115.836,180.728 130.397,181.772 132.400 C 182.059 132.950,182.218 133.609,182.126 133.863 C 182.033 134.118,182.147 134.444,182.379 134.587 C 182.610 134.730,182.800 135.180,182.800 135.586 C 182.800 136.620,186.025 143.144,187.327 144.743 C 187.669 145.162,187.522 145.467,186.683 146.078 C 186.085 146.513,185.715 147.062,185.860 147.297 C 186.005 147.531,185.952 147.618,185.743 147.488 C 184.584 146.772,180.531 153.158,179.324 157.600 C 178.732 159.781,178.642 166.255,179.200 166.600 C 179.420 166.736,179.600 167.289,179.600 167.829 C 179.600 168.369,179.765 169.123,179.966 169.505 C 180.168 169.887,180.618 170.857,180.966 171.660 C 182.055 174.169,185.058 177.782,187.590 179.628 C 190.235 181.556,191.097 182.005,190.594 181.190 C 190.386 180.853,190.435 180.775,190.738 180.962 C 191.470 181.414,191.279 182.523,190.283 183.604 C 188.752 185.267,186.752 188.372,186.691 189.181 C 186.660 189.601,186.518 189.873,186.377 189.786 C 186.236 189.699,185.892 190.116,185.614 190.714 C 185.335 191.311,184.948 192.113,184.753 192.495 C 184.559 192.877,184.400 193.484,184.400 193.844 C 184.400 194.366,184.284 194.402,183.828 194.023 C 183.342 193.620,183.254 193.957,183.244 196.274 C 183.237 197.773,182.839 202.240,182.359 206.200 C 181.512 213.195,180.912 246.400,181.633 246.400 C 182.106 246.400,181.849 247.572,181.333 247.770 C 181.004 247.897,180.821 248.554,180.854 249.487 C 180.894 250.580,180.959 250.722,181.088 250.000 C 181.391 248.310,182.000 248.107,182.000 249.696 C 182.000 250.497,182.180 251.264,182.400 251.400 C 182.620 251.536,182.800 251.991,182.800 252.411 C 182.800 252.832,183.160 253.817,183.600 254.600 C 184.040 255.383,184.400 256.267,184.400 256.563 C 184.400 256.860,184.668 257.324,184.996 257.596 C 185.323 257.868,185.493 258.250,185.372 258.445 C 185.134 258.830,186.158 260.509,186.452 260.215 C 186.551 260.115,186.660 260.401,186.694 260.849 C 186.772 261.883,189.279 265.192,189.762 264.897 C 189.961 264.776,189.992 264.889,189.832 265.148 C 189.443 265.777,192.223 268.557,192.852 268.168 C 193.130 267.996,193.218 268.048,193.066 268.293 C 192.223 269.657,201.157 271.997,202.608 270.793 C 202.942 270.516,203.526 270.257,203.907 270.217 C 205.098 270.091,206.007 269.534,205.736 269.096 C 205.580 268.844,205.670 268.796,205.963 268.977 C 206.835 269.516,212.740 263.007,213.471 260.700 C 213.593 260.315,213.852 260.000,214.047 260.000 C 214.241 260.000,214.400 259.747,214.400 259.438 C 214.400 258.953,214.952 257.680,216.450 254.705 C 216.643 254.323,216.800 253.659,216.800 253.229 C 216.800 252.799,216.980 252.336,217.200 252.200 C 217.420 252.064,217.600 251.549,217.600 251.056 C 217.600 250.563,217.799 249.961,218.042 249.718 C 218.849 248.911,218.684 215.411,217.836 208.000 C 217.204 202.476,216.966 200.250,216.637 196.800 C 216.525 195.633,216.220 194.774,215.167 192.662 C 214.745 191.816,214.400 190.871,214.400 190.562 C 214.400 190.253,214.241 190.000,214.047 190.000 C 213.852 190.000,213.593 189.685,213.471 189.300 C 213.075 188.051,211.837 186.250,210.105 184.406 C 207.976 182.138,207.987 182.002,210.388 180.867 C 212.315 179.955,216.800 176.051,216.800 175.284 C 216.800 175.071,217.061 174.681,217.381 174.416 C 218.139 173.787,220.000 170.042,220.000 169.145 C 220.000 168.761,220.180 168.336,220.400 168.200 C 220.974 167.845,220.925 157.485,220.347 156.907 C 220.097 156.657,219.871 156.126,219.844 155.727 C 219.732 154.105,217.270 150.048,214.931 147.632 C 212.974 145.610,212.522 144.919,212.808 144.384 C 213.008 144.011,213.043 143.563,212.886 143.388 C 212.729 143.214,212.801 143.186,213.047 143.327 C 213.531 143.603,216.809 137.491,216.803 136.324 C 216.801 135.952,216.980 135.536,217.200 135.400 C 217.420 135.264,217.600 134.724,217.600 134.200 C 217.600 133.676,217.780 133.136,218.000 133.000 C 218.220 132.864,218.400 132.324,218.400 131.800 C 218.400 131.276,218.580 130.736,218.800 130.600 C 219.020 130.464,219.200 129.744,219.200 129.000 C 219.200 128.256,219.380 127.536,219.600 127.400 C 219.820 127.264,220.000 126.544,220.000 125.800 C 220.000 125.056,220.180 124.336,220.400 124.200 C 220.620 124.064,220.800 122.984,220.800 121.800 C 220.800 120.616,220.980 119.536,221.200 119.400 C 221.420 119.264,221.600 118.184,221.600 117.000 C 221.600 115.816,221.780 114.736,222.000 114.600 C 222.220 114.464,222.400 112.869,222.400 111.056 C 222.400 109.243,222.569 107.589,222.776 107.380 C 223.136 107.016,223.305 104.482,223.826 91.600 C 224.054 85.964,224.567 83.961,225.615 84.610 C 225.886 84.777,227.688 84.015,230.200 82.672 C 230.640 82.437,231.840 81.820,232.867 81.303 C 233.894 80.785,234.951 80.100,235.216 79.781 C 235.481 79.461,235.931 79.200,236.216 79.200 C 236.500 79.200,236.793 79.065,236.867 78.900 C 236.940 78.735,237.945 77.818,239.100 76.862 C 240.256 75.907,241.083 74.934,240.939 74.701 C 240.793 74.465,240.865 74.393,241.101 74.539 C 241.489 74.779,244.800 71.259,244.800 70.606 C 244.800 70.451,245.195 69.768,245.679 69.090 C 246.179 68.386,246.308 68.000,245.979 68.192 C 245.660 68.377,245.805 68.083,246.300 67.539 C 246.795 66.994,247.200 66.256,247.200 65.898 C 247.200 65.540,247.380 65.136,247.600 65.000 C 247.820 64.864,248.000 64.349,248.000 63.856 C 248.000 63.363,248.222 62.738,248.494 62.466 C 248.844 62.116,248.988 60.165,248.988 55.800 C 248.988 51.435,248.844 49.484,248.494 49.134 C 248.222 48.862,248.000 48.231,248.000 47.732 C 248.000 46.276,245.564 42.192,245.000 42.703 C 244.819 42.866,244.787 42.798,244.928 42.552 C 245.180 42.109,243.979 40.400,243.415 40.400 C 243.255 40.400,242.580 40.013,241.916 39.540 C 239.671 37.942,235.687 38.238,231.585 40.309 C 227.864 42.187,224.663 44.512,225.112 45.010 C 225.271 45.185,225.191 45.208,224.935 45.062 C 224.410 44.762,221.871 47.082,220.406 49.200 C 219.874 49.970,219.340 50.690,219.219 50.800 C 218.601 51.364,217.659 53.530,217.911 53.808 C 218.070 53.984,218.004 54.017,217.765 53.881 C 217.272 53.600,215.600 56.483,215.600 57.614 C 215.600 58.020,215.408 58.472,215.173 58.617 C 214.938 58.762,214.835 59.115,214.945 59.402 C 215.055 59.688,214.893 60.255,214.585 60.661 C 214.277 61.068,214.020 61.974,214.013 62.676 C 214.006 63.378,213.820 64.064,213.600 64.200 C 213.355 64.352,213.197 67.645,213.193 72.724 C 213.189 77.276,212.897 86.130,212.544 92.400 C 211.642 108.415,211.622 108.703,211.190 111.600 C 210.977 113.030,210.615 115.460,210.386 117.000 C 210.156 118.540,209.810 120.520,209.617 121.400 C 209.423 122.280,209.041 124.080,208.768 125.400 C 208.495 126.720,208.120 127.971,207.936 128.180 C 207.751 128.389,207.600 128.963,207.600 129.456 C 207.600 129.949,207.420 130.464,207.200 130.600 C 206.980 130.736,206.800 131.162,206.800 131.547 C 206.800 132.421,204.493 137.047,203.301 138.562 C 202.812 139.185,202.527 139.898,202.670 140.147 C 202.812 140.396,202.782 140.468,202.604 140.306 C 202.425 140.145,202.081 140.270,201.840 140.584 C 200.395 142.464,198.615 141.550,195.986 137.579 C 195.410 136.708,194.855 136.078,194.755 136.179 C 194.654 136.280,194.536 135.932,194.492 135.407 C 194.449 134.882,193.967 133.653,193.422 132.677 C 192.877 131.701,192.533 130.801,192.656 130.677 C 192.780 130.553,192.607 130.059,192.271 129.580 C 191.935 129.100,191.749 128.477,191.857 128.195 C 191.966 127.912,191.862 127.562,191.627 127.417 C 191.392 127.272,191.200 126.544,191.200 125.800 C 191.200 125.056,191.020 124.336,190.800 124.200 C 190.580 124.064,190.400 123.164,190.400 122.200 C 190.400 121.236,190.220 120.336,190.000 120.200 C 189.780 120.064,189.600 118.984,189.600 117.800 C 189.600 116.616,189.420 115.536,189.200 115.400 C 188.980 115.264,188.800 113.669,188.800 111.856 C 188.800 110.043,188.634 108.389,188.432 108.180 C 187.931 107.662,187.510 99.747,186.775 77.000 C 186.527 69.300,186.160 62.829,185.962 62.620 C 185.763 62.411,185.600 61.747,185.600 61.144 C 185.600 60.541,185.420 59.936,185.200 59.800 C 184.980 59.664,184.800 59.201,184.800 58.771 C 184.800 58.341,184.632 57.677,184.426 57.295 C 184.221 56.913,183.817 56.015,183.529 55.300 C 183.240 54.585,182.869 54.000,182.702 54.000 C 182.536 54.000,182.400 53.810,182.400 53.578 C 182.400 51.815,176.096 45.022,171.722 42.071 C 169.102 40.304,168.603 40.090,168.995 40.900 C 169.128 41.175,168.937 40.995,168.570 40.500 C 167.873 39.560,166.939 39.230,167.441 40.100 C 167.599 40.375,167.295 40.208,166.765 39.729 C 165.776 38.836,161.305 38.014,160.713 38.616 M165.384 43.964 C 177.308 49.370,182.400 58.309,182.400 73.835 C 182.400 83.352,182.084 83.525,172.800 79.099 C 161.155 73.549,155.515 66.035,155.461 56.000 C 155.423 49.041,156.938 45.286,160.600 43.266 C 161.826 42.589,162.602 42.702,165.384 43.964 M239.854 43.567 C 246.291 47.493,246.496 60.605,240.252 69.086 C 235.867 75.043,221.874 83.245,218.854 81.629 C 216.327 80.277,217.387 63.772,220.410 57.396 C 224.313 49.166,235.725 41.050,239.854 43.567 M22.000 102.525 C 22.000 102.594,22.585 103.179,23.300 103.825 L 24.600 105.000 23.425 103.700 C 22.330 102.488,22.000 102.216,22.000 102.525 M206.304 150.085 C 213.029 153.223,215.545 161.694,210.153 163.047 C 206.566 163.948,199.600 157.642,199.600 153.495 C 199.600 149.958,202.678 148.392,206.304 150.085 M41.378 165.200 C 41.378 172.130,41.433 174.965,41.499 171.500 C 41.566 168.035,41.566 162.365,41.499 158.900 C 41.433 155.435,41.378 158.270,41.378 165.200 M56.554 220.512 C 51.855 225.335,51.617 226.026,56.209 221.515 C 58.384 219.379,60.073 217.539,59.961 217.428 C 59.849 217.316,58.316 218.704,56.554 220.512 M343.254 220.605 C 344.713 222.142,346.004 223.670,346.122 224.000 C 346.313 224.533,346.339 224.533,346.359 224.000 C 346.383 223.356,344.725 221.455,342.179 219.205 C 341.311 218.438,341.794 219.068,343.254 220.605 M346.800 224.738 C 346.800 224.924,347.160 225.402,347.600 225.800 C 348.040 226.198,348.400 226.747,348.400 227.019 C 348.400 227.292,348.676 227.620,349.014 227.750 C 349.394 227.896,349.157 227.300,348.395 226.193 C 347.177 224.422,346.800 224.078,346.800 224.738 M51.200 226.600 C 50.917 226.941,50.776 227.309,50.886 227.419 C 50.996 227.529,51.317 227.341,51.600 227.000 C 51.883 226.659,52.024 226.291,51.914 226.181 C 51.804 226.071,51.483 226.259,51.200 226.600 M47.867 233.067 C 47.720 233.213,47.639 238.388,47.688 244.567 L 47.775 255.800 47.988 244.400 C 48.223 231.785,48.232 232.701,47.867 233.067 M180.267 252.267 C 180.120 252.413,180.000 253.073,180.000 253.733 C 180.000 255.234,180.371 254.930,180.583 253.255 C 180.748 251.947,180.709 251.824,180.267 252.267 M179.200 257.024 C 179.200 257.604,179.373 257.940,179.600 257.800 C 179.820 257.664,180.000 257.203,180.000 256.776 C 180.000 256.349,179.820 256.000,179.600 256.000 C 179.380 256.000,179.200 256.461,179.200 257.024 M47.650 259.851 C 47.616 260.965,47.820 261.681,48.277 262.051 C 48.861 262.525,48.904 262.518,48.591 262.000 C 48.391 261.670,48.109 260.680,47.964 259.800 L 47.700 258.200 47.650 259.851 M178.480 260.504 C 178.241 260.792,178.190 261.260,178.367 261.547 C 178.600 261.924,178.755 261.815,178.929 261.151 C 179.220 260.036,179.060 259.805,178.480 260.504 M351.275 262.446 C 351.219 263.177,351.343 263.559,351.586 263.409 C 351.807 263.272,351.936 262.813,351.871 262.390 C 351.678 261.124,351.374 261.152,351.275 262.446 M177.867 263.467 C 177.720 263.613,177.611 264.108,177.625 264.567 C 177.649 265.333,177.682 265.323,178.034 264.442 C 178.426 263.463,178.344 262.989,177.867 263.467 M222.000 265.920 C 222.000 266.096,222.179 266.419,222.398 266.638 C 222.617 266.857,222.846 267.644,222.906 268.387 C 222.968 269.148,223.274 269.824,223.608 269.934 C 224.060 270.084,224.100 269.997,223.775 269.565 C 223.542 269.254,223.374 268.730,223.401 268.400 C 223.429 268.070,223.210 267.305,222.916 266.700 C 222.389 265.620,222.000 265.288,222.000 265.920 M177.067 266.667 C 176.654 267.079,176.752 268.477,177.175 268.216 C 177.381 268.088,177.522 267.628,177.489 267.192 C 177.422 266.297,177.429 266.305,177.067 266.667 M223.774 271.575 C 223.789 272.212,223.922 272.856,224.072 273.005 C 224.221 273.155,224.301 272.725,224.250 272.050 C 224.128 270.454,223.741 270.068,223.774 271.575 M224.574 274.875 C 224.589 275.567,224.826 276.209,225.103 276.301 C 225.475 276.425,225.514 276.225,225.251 275.534 C 225.056 275.020,224.889 274.450,224.881 274.267 C 224.837 273.256,224.553 273.819,224.574 274.875 M53.827 275.385 C 54.569 276.518,54.800 276.639,54.800 275.896 C 54.800 275.619,54.431 275.162,53.981 274.881 C 53.181 274.381,53.177 274.393,53.827 275.385 M55.670 277.978 C 56.181 278.626,56.749 279.166,56.930 279.178 C 57.112 279.190,56.842 278.670,56.330 278.022 C 55.819 277.374,55.251 276.834,55.070 276.822 C 54.888 276.810,55.158 277.330,55.670 277.978 M343.322 278.166 C 342.705 278.697,342.303 279.235,342.429 279.362 C 342.555 279.488,343.174 279.054,343.804 278.396 C 345.181 276.959,344.888 276.819,343.322 278.166 M226.369 279.700 C 226.117 280.525,226.143 281.241,226.433 281.420 C 226.632 281.543,226.757 281.184,226.710 280.622 C 226.638 279.753,226.482 279.331,226.369 279.700 M341.232 280.381 C 341.214 280.700,340.627 281.553,339.927 282.275 C 339.227 282.997,338.747 283.681,338.861 283.794 C 339.205 284.138,341.672 280.810,341.461 280.287 C 341.328 279.960,341.253 279.991,341.232 280.381 M59.603 282.278 C 60.145 282.895,60.746 283.580,60.940 283.800 C 61.133 284.020,61.007 283.637,60.660 282.948 C 60.313 282.260,59.712 281.575,59.324 281.426 C 58.789 281.221,58.856 281.426,59.603 282.278 M227.000 283.200 C 226.697 283.691,227.094 284.400,227.673 284.400 C 227.963 284.400,227.957 284.230,227.652 283.863 C 227.407 283.568,227.325 283.208,227.470 283.063 C 227.615 282.918,227.624 282.800,227.490 282.800 C 227.357 282.800,227.136 282.980,227.000 283.200 M61.635 284.874 C 61.984 285.163,62.194 285.625,62.102 285.900 C 62.009 286.175,62.112 286.400,62.331 286.400 C 63.009 286.400,62.583 285.131,61.770 284.729 C 61.096 284.395,61.079 284.413,61.635 284.874 M63.778 288.835 C 63.631 289.074,63.710 289.470,63.955 289.715 C 64.282 290.042,64.400 289.926,64.400 289.280 C 64.400 288.314,64.192 288.165,63.778 288.835 M334.316 293.425 C 333.939 294.166,333.766 294.855,333.931 294.957 C 334.280 295.173,335.331 292.973,335.133 292.439 C 335.060 292.240,334.692 292.683,334.316 293.425 M66.248 300.356 C 66.332 301.322,66.441 308.072,66.492 315.356 L 66.584 328.600 66.792 314.800 C 66.906 307.210,66.882 300.820,66.738 300.600 C 66.594 300.380,66.391 299.840,66.286 299.400 C 66.181 298.960,66.164 299.390,66.248 300.356 M333.124 300.300 C 333.056 300.465,333.095 306.810,333.210 314.400 L 333.421 328.200 333.510 314.100 C 333.591 301.386,333.533 299.307,333.124 300.300 M234.908 306.420 C 234.877 306.840,235.019 307.288,235.225 307.416 C 235.431 307.543,235.600 307.287,235.600 306.847 C 235.600 305.804,234.984 305.423,234.908 306.420 M157.711 320.500 C 157.498 320.775,157.204 321.360,157.057 321.800 C 156.841 322.446,156.943 322.408,157.586 321.600 C 158.327 320.670,158.604 320.000,158.249 320.000 C 158.166 320.000,157.924 320.225,157.711 320.500 M242.000 321.006 C 242.000 321.450,244.933 325.600,245.117 325.417 C 245.224 325.309,244.627 324.226,243.790 323.011 C 242.348 320.918,242.000 320.528,242.000 321.006 M155.700 323.398 C 155.425 323.711,155.200 324.154,155.200 324.383 C 155.200 325.138,155.792 324.812,156.262 323.797 C 156.769 322.705,156.487 322.505,155.700 323.398 M153.994 326.100 C 153.782 326.595,153.314 327.405,152.955 327.900 C 152.596 328.395,152.406 328.800,152.532 328.800 C 152.658 328.800,153.319 327.990,154.000 327.000 C 154.681 326.010,155.045 325.200,154.809 325.200 C 154.573 325.200,154.206 325.605,153.994 326.100 M247.684 329.300 C 250.112 332.529,259.189 342.124,259.196 341.469 C 259.198 341.286,258.525 340.461,257.700 339.635 C 252.797 334.725,248.807 330.297,247.479 328.294 C 246.642 327.032,245.788 326.000,245.580 326.000 C 245.373 326.000,246.320 327.485,247.684 329.300 M66.976 331.238 C 66.827 331.479,67.018 331.974,67.399 332.338 C 68.051 332.959,68.067 332.948,67.661 332.153 C 67.423 331.687,67.342 331.192,67.481 331.053 C 67.620 330.914,67.624 330.800,67.490 330.800 C 67.357 330.800,67.125 330.997,66.976 331.238 M332.446 332.267 C 332.421 332.524,332.284 333.064,332.141 333.467 C 331.940 334.036,331.994 334.097,332.379 333.742 C 332.652 333.491,332.789 332.951,332.684 332.542 C 332.579 332.134,332.472 332.010,332.446 332.267 M144.600 337.538 C 142.400 339.816,140.240 341.830,139.800 342.014 C 139.285 342.230,139.214 342.354,139.600 342.363 C 140.192 342.377,142.519 340.271,146.777 335.870 C 147.974 334.632,148.874 333.570,148.777 333.509 C 148.679 333.448,146.800 335.261,144.600 337.538 M67.800 334.400 C 67.497 334.891,67.894 335.600,68.473 335.600 C 68.763 335.600,68.757 335.430,68.452 335.063 C 68.207 334.768,68.125 334.408,68.270 334.263 C 68.415 334.118,68.424 334.000,68.290 334.000 C 68.157 334.000,67.936 334.180,67.800 334.400 M138.119 343.290 C 137.212 344.462,137.156 344.937,138.023 344.111 C 138.536 343.622,138.856 343.123,138.735 343.001 C 138.613 342.880,138.336 343.010,138.119 343.290 M262.800 344.745 C 263.789 345.619,264.655 346.278,264.724 346.210 C 264.924 346.009,262.997 344.248,261.955 343.678 C 261.430 343.391,261.810 343.871,262.800 344.745 M72.893 344.800 C 73.168 345.240,73.531 345.600,73.700 345.600 C 73.869 345.600,73.782 345.240,73.507 344.800 C 73.232 344.360,72.869 344.000,72.700 344.000 C 72.531 344.000,72.618 344.360,72.893 344.800 M326.400 344.786 C 326.400 344.998,325.841 345.808,325.159 346.586 C 324.476 347.364,324.051 348.000,324.214 348.000 C 324.378 348.000,324.759 347.685,325.062 347.300 C 326.758 345.143,327.210 344.400,326.827 344.400 C 326.592 344.400,326.400 344.574,326.400 344.786 M136.199 345.201 C 136.045 345.451,135.532 345.812,135.059 346.003 C 134.561 346.204,134.452 346.355,134.800 346.362 C 135.536 346.377,137.029 345.296,136.711 344.978 C 136.584 344.851,136.354 344.951,136.199 345.201 M74.602 346.802 C 75.002 347.244,75.415 347.518,75.521 347.412 C 75.790 347.143,74.792 346.000,74.289 346.000 C 74.062 346.000,74.203 346.361,74.602 346.802 M77.863 350.000 C 78.451 350.660,79.003 351.130,79.089 351.045 C 79.278 350.855,77.413 348.800,77.051 348.800 C 76.910 348.800,77.275 349.340,77.863 350.000 M318.370 352.671 L 317.400 353.742 318.700 352.844 C 320.012 351.937,320.275 351.600,319.670 351.600 C 319.488 351.600,318.903 352.082,318.370 352.671 M316.612 353.580 C 316.465 353.818,316.198 353.922,316.018 353.811 C 315.608 353.558,314.596 354.730,314.934 355.067 C 315.070 355.203,315.290 355.030,315.424 354.683 C 315.557 354.335,315.903 354.141,316.193 354.253 C 316.725 354.457,317.450 353.717,317.080 353.347 C 316.970 353.237,316.760 353.342,316.612 353.580 M309.412 356.780 C 309.265 357.018,308.932 357.094,308.672 356.948 C 308.354 356.769,308.363 356.858,308.700 357.221 C 309.085 357.636,309.309 357.651,309.673 357.287 C 309.934 357.026,310.042 356.708,309.913 356.580 C 309.785 356.452,309.560 356.542,309.412 356.780 "
       stroke="none"
       fill="#3c2b54"
       fill-rule="evenodd"
       style="fill:none;stroke:#000000;stroke-opacity:1" />
    <path
       id="path5"
       d="M46.200 54.400 C 46.064 54.620,46.313 54.800,46.753 54.800 C 47.193 54.800,47.664 54.620,47.800 54.400 C 47.936 54.180,47.687 54.000,47.247 54.000 C 46.807 54.000,46.336 54.180,46.200 54.400 M351.800 54.400 C 351.936 54.620,352.386 54.800,352.800 54.800 C 353.214 54.800,353.664 54.620,353.800 54.400 C 353.945 54.166,353.530 54.000,352.800 54.000 C 352.070 54.000,351.655 54.166,351.800 54.400 M41.700 54.676 C 42.085 54.776,42.715 54.776,43.100 54.676 C 43.485 54.575,43.170 54.493,42.400 54.493 C 41.630 54.493,41.315 54.575,41.700 54.676 M356.700 54.682 C 357.195 54.778,358.005 54.778,358.500 54.682 C 358.995 54.587,358.590 54.509,357.600 54.509 C 356.610 54.509,356.205 54.587,356.700 54.682 M343.733 55.400 C 343.733 55.730,343.861 56.000,344.018 56.000 C 344.174 56.000,344.526 55.730,344.800 55.400 C 345.214 54.901,345.166 54.800,344.516 54.800 C 344.085 54.800,343.733 55.070,343.733 55.400 M318.346 61.127 C 317.928 61.682,317.932 61.717,318.368 61.331 C 318.659 61.073,319.127 60.951,319.408 61.059 C 319.689 61.166,320.015 61.100,320.132 60.910 C 320.538 60.253,318.850 60.458,318.346 61.127 M88.900 63.876 C 89.285 63.976,89.600 64.326,89.600 64.653 C 89.600 64.980,89.789 65.131,90.019 64.988 C 90.602 64.628,89.695 63.586,88.851 63.646 C 88.302 63.686,88.309 63.721,88.900 63.876 M45.914 74.599 C 38.250 78.919,45.553 97.733,58.200 106.253 C 67.381 112.438,81.600 115.823,81.600 111.824 C 81.600 109.757,72.461 95.018,66.208 86.999 C 58.394 76.980,50.378 72.082,45.914 74.599 M347.963 74.756 C 341.194 77.404,332.610 87.211,322.672 103.648 C 317.091 112.878,317.196 114.125,323.479 113.210 C 336.919 111.254,347.602 103.935,353.874 92.388 C 360.003 81.108,356.724 71.328,347.963 74.756 M53.200 76.218 C 59.438 79.349,68.046 89.720,77.088 104.997 C 81.428 112.331,81.429 112.595,77.100 112.274 C 63.936 111.298,50.588 101.522,45.564 89.177 C 41.274 78.636,45.095 72.151,53.200 76.218 M353.353 75.582 C 356.823 76.901,356.979 83.511,353.704 90.452 C 348.054 102.427,336.011 110.926,322.857 112.222 C 318.578 112.644,318.617 112.269,323.730 103.800 C 336.242 83.075,346.745 73.070,353.353 75.582 M121.834 84.500 C 122.250 84.995,122.616 85.453,122.646 85.517 C 122.676 85.582,122.811 85.347,122.946 84.996 C 123.081 84.646,123.032 84.457,122.837 84.577 C 122.643 84.697,122.381 84.526,122.254 84.198 C 122.128 83.869,121.812 83.600,121.551 83.600 C 121.268 83.600,121.383 83.965,121.834 84.500 M129.600 91.014 C 129.600 91.339,134.756 96.400,135.088 96.400 C 135.248 96.400,134.128 95.140,132.600 93.600 C 129.828 90.807,129.600 90.610,129.600 91.014 M93.940 93.108 C 91.484 93.611,92.438 104.816,95.804 115.000 C 101.164 131.214,113.318 149.287,124.589 157.800 C 128.429 160.701,138.799 166.400,140.237 166.400 C 140.496 166.400,141.224 166.669,141.854 166.998 C 142.898 167.542,142.094 167.595,132.800 167.598 C 115.666 167.603,109.001 168.581,102.371 172.065 C 97.932 174.397,93.200 179.183,93.200 181.340 C 93.200 184.303,103.824 191.493,109.200 192.169 L 111.000 192.395 108.875 191.613 C 99.761 188.261,93.096 182.909,94.545 180.107 C 95.465 178.326,99.935 174.351,102.611 172.934 C 109.157 169.466,113.688 168.808,131.296 168.770 C 149.671 168.731,150.925 168.516,144.192 166.564 C 130.824 162.688,120.160 154.735,111.020 141.823 C 100.266 126.629,94.364 112.160,93.715 99.394 C 93.428 93.752,93.609 93.522,97.532 94.546 C 111.935 98.306,127.897 113.957,141.565 137.724 C 146.974 147.128,155.097 164.401,155.928 168.266 C 156.213 169.586,156.298 169.680,156.545 168.935 C 157.070 167.351,154.097 159.870,148.543 148.800 C 137.683 127.151,127.646 113.387,115.070 102.897 C 108.729 97.609,97.459 92.388,93.940 93.108 M300.600 94.210 C 288.099 98.508,275.937 109.380,264.142 126.800 C 262.051 129.889,258.800 135.152,258.800 135.449 C 258.800 135.542,258.366 136.288,257.836 137.109 C 256.347 139.415,253.837 144.110,251.160 149.600 C 245.698 160.803,243.589 165.946,243.627 167.969 C 243.648 169.098,243.722 169.231,243.974 168.600 C 244.150 168.160,245.063 165.820,246.004 163.400 C 259.930 127.579,284.262 98.597,304.071 94.235 C 308.958 93.159,305.714 111.219,298.375 125.943 C 286.956 148.856,273.270 161.627,254.600 166.792 C 248.458 168.492,250.500 168.789,268.400 168.805 C 285.350 168.820,290.422 169.553,297.000 172.938 C 300.858 174.924,305.600 179.361,305.600 180.985 C 305.600 183.706,298.891 188.714,291.800 191.286 C 288.762 192.388,288.701 192.434,290.584 192.186 C 296.623 191.393,306.388 184.692,306.485 181.276 C 306.639 175.861,294.335 169.161,282.400 168.160 C 280.530 168.004,278.640 167.828,278.200 167.771 C 277.760 167.714,272.720 167.648,267.000 167.624 C 255.643 167.578,255.914 167.677,261.400 165.563 C 266.512 163.593,271.865 160.416,277.200 156.186 C 285.572 149.548,296.505 133.857,301.994 120.600 C 303.690 116.504,305.178 111.715,305.972 107.800 C 306.195 106.700,306.562 104.955,306.789 103.923 C 307.368 101.278,307.321 94.281,306.720 93.680 C 305.987 92.947,303.696 93.145,300.600 94.210 M262.886 98.189 C 263.044 98.363,262.719 98.863,262.165 99.299 C 261.611 99.735,261.246 100.179,261.353 100.286 C 261.460 100.393,262.028 100.035,262.616 99.490 C 263.443 98.724,263.562 98.428,263.142 98.186 C 262.844 98.013,262.729 98.014,262.886 98.189 M144.570 108.278 C 144.625 108.651,144.897 109.032,145.174 109.125 C 145.566 109.255,145.577 109.105,145.225 108.446 C 144.678 107.425,144.436 107.362,144.570 108.278 M149.200 114.351 C 149.200 114.598,149.425 114.803,149.700 114.806 C 150.033 114.810,150.000 114.942,149.600 115.200 C 149.239 115.433,149.190 115.590,149.476 115.594 C 150.255 115.604,150.435 114.927,149.796 114.396 C 149.382 114.053,149.200 114.039,149.200 114.351 M71.600 124.349 C 61.176 126.618,58.259 139.929,66.534 147.462 C 70.222 150.819,70.782 150.931,84.800 151.111 C 102.180 151.333,102.879 150.856,96.200 143.351 C 95.980 143.103,94.270 140.874,92.400 138.396 C 82.226 124.918,78.999 122.738,71.600 124.349 M322.092 124.600 C 318.123 125.707,315.719 127.644,312.412 132.400 C 311.877 133.170,311.337 133.890,311.212 134.000 C 311.087 134.110,309.410 136.270,307.485 138.800 C 305.560 141.330,303.183 144.429,302.204 145.686 C 298.212 150.810,298.499 150.968,312.104 151.124 C 330.860 151.340,334.732 149.621,337.960 139.640 C 340.715 131.122,331.164 122.069,322.092 124.600 M80.272 126.424 C 83.081 127.786,83.242 127.963,91.867 139.200 C 99.110 148.636,99.438 149.122,98.924 149.636 C 97.974 150.586,71.980 149.894,70.000 148.866 C 54.979 141.070,65.061 119.046,80.272 126.424 M329.644 125.833 C 339.829 129.114,339.550 145.111,329.238 149.090 C 326.571 150.120,301.485 150.179,301.287 149.156 C 301.157 148.484,313.663 131.860,316.532 128.891 C 320.086 125.214,324.515 124.181,329.644 125.833 M242.200 126.800 C 242.064 127.020,242.223 127.200,242.553 127.200 C 242.883 127.200,243.264 127.020,243.400 126.800 C 243.536 126.580,243.377 126.400,243.047 126.400 C 242.717 126.400,242.336 126.580,242.200 126.800 M240.792 129.410 C 240.514 129.745,240.397 130.131,240.534 130.267 C 240.670 130.403,240.894 130.220,241.032 129.860 C 241.171 129.499,241.473 129.321,241.704 129.464 C 241.949 129.616,242.005 129.531,241.838 129.262 C 241.471 128.668,241.399 128.678,240.792 129.410 M231.421 147.977 C 231.034 148.404,230.812 148.989,230.927 149.277 C 231.064 149.617,231.148 149.555,231.168 149.100 C 231.186 148.715,231.470 148.400,231.800 148.400 C 232.130 148.400,232.400 148.130,232.400 147.800 C 232.400 147.018,232.267 147.043,231.421 147.977 M227.280 157.680 C 226.553 158.407,226.684 159.219,227.480 158.914 C 227.929 158.741,227.992 158.597,227.663 158.488 C 227.283 158.361,227.276 158.191,227.632 157.761 C 228.201 157.076,227.944 157.016,227.280 157.680 M41.693 178.400 C 41.693 179.170,41.775 179.485,41.876 179.100 C 41.976 178.715,41.976 178.085,41.876 177.700 C 41.775 177.315,41.693 177.630,41.693 178.400 M252.000 181.325 C 252.000 181.394,252.585 181.979,253.300 182.625 L 254.600 183.800 253.425 182.500 C 252.330 181.288,252.000 181.016,252.000 181.325 M66.200 202.000 C 65.891 202.500,82.236 202.500,83.400 202.000 C 83.880 201.794,80.653 201.645,75.324 201.628 C 69.806 201.611,66.354 201.751,66.200 202.000 M316.600 202.000 C 318.466 202.475,334.493 202.475,334.200 202.000 C 334.045 201.750,330.481 201.618,324.676 201.647 C 319.524 201.674,315.934 201.830,316.600 202.000 M117.000 221.563 C 103.672 224.926,102.369 225.354,100.206 227.076 C 94.771 231.405,91.243 244.737,94.083 250.216 C 97.002 255.846,102.546 258.147,107.689 255.862 C 111.268 254.271,111.952 253.335,121.481 237.000 C 123.021 234.360,125.551 230.040,127.103 227.400 C 133.314 216.833,134.054 217.260,117.000 221.563 M269.200 219.768 C 269.200 220.301,270.127 222.326,271.259 224.268 C 272.392 226.211,274.574 229.960,276.109 232.600 C 277.644 235.240,279.215 237.940,279.600 238.600 C 279.985 239.260,281.569 241.997,283.118 244.681 C 288.039 253.205,289.202 254.518,293.181 256.029 C 301.954 259.363,310.348 250.143,306.759 241.115 C 306.297 239.952,305.415 237.431,304.800 235.514 C 302.073 227.009,300.739 226.155,283.356 221.779 C 270.123 218.448,269.200 218.317,269.200 219.768 M130.129 219.758 C 130.313 220.238,116.698 244.220,112.637 250.569 C 108.204 257.500,99.729 257.847,95.558 251.269 C 93.109 247.408,92.990 244.278,95.048 237.893 C 98.499 227.186,98.987 226.833,116.434 222.430 C 130.569 218.863,129.840 219.005,130.129 219.758 M283.809 222.619 C 300.329 226.811,301.600 227.665,304.318 236.400 C 304.763 237.830,305.481 239.819,305.915 240.819 C 310.727 251.933,297.500 261.267,289.164 252.641 C 288.374 251.823,285.771 247.790,283.379 243.677 C 268.468 218.039,269.273 219.600,270.956 219.600 C 271.482 219.600,277.266 220.959,283.809 222.619 M130.920 257.600 C 130.920 258.810,130.995 259.305,131.087 258.700 C 131.178 258.095,131.178 257.105,131.087 256.500 C 130.995 255.895,130.920 256.390,130.920 257.600 M118.985 289.000 C 118.985 299.340,119.036 303.627,119.100 298.528 C 119.163 293.428,119.163 284.968,119.100 279.728 C 119.037 274.487,118.985 278.660,118.985 289.000 M280.984 288.400 C 280.984 298.410,281.036 302.505,281.100 297.500 C 281.163 292.495,281.163 284.305,281.100 279.300 C 281.036 274.295,280.984 278.390,280.984 288.400 M102.800 279.800 C 101.828 280.790,101.123 281.600,101.233 281.600 C 101.343 281.600,102.228 280.790,103.200 279.800 C 104.172 278.810,104.877 278.000,104.767 278.000 C 104.657 278.000,103.772 278.810,102.800 279.800 "
       stroke="none"
       fill="#ac7cb9"
       fill-rule="evenodd" />
    <path
       id="path6"
       d="M72.107 125.203 C 60.541 127.614,59.150 143.235,70.000 148.866 C 71.766 149.782,72.052 149.802,85.164 149.916 C 99.478 150.039,99.812 149.995,98.586 148.121 C 97.665 146.711,86.418 132.048,84.312 129.511 C 81.539 126.170,76.314 124.326,72.107 125.203 M323.253 125.219 C 320.632 125.752,318.374 126.986,316.532 128.891 C 313.663 131.860,301.157 148.484,301.287 149.156 C 301.485 150.179,326.571 150.120,329.238 149.090 C 342.820 143.848,337.426 122.336,323.253 125.219 M155.660 167.956 C 155.484 169.585,153.327 169.975,150.922 168.813 C 149.520 168.136,148.968 168.080,146.947 168.411 C 145.656 168.622,138.523 168.796,131.096 168.798 C 110.488 168.801,104.511 170.192,97.685 176.570 C 93.102 180.852,93.208 182.234,98.421 186.152 C 109.648 194.591,126.939 196.444,137.336 190.321 C 144.893 185.871,156.459 172.259,155.885 168.489 C 155.794 167.890,155.693 167.650,155.660 167.956 M244.170 168.534 C 243.164 171.156,254.682 185.021,261.600 189.516 C 273.150 197.021,294.406 194.162,303.937 183.822 C 306.290 181.269,306.176 180.547,302.900 177.279 C 296.074 170.469,289.368 168.844,267.800 168.774 C 260.760 168.751,253.920 168.594,252.600 168.425 C 250.940 168.213,249.645 168.283,248.400 168.655 C 246.099 169.341,245.790 169.333,245.027 168.570 C 244.478 168.021,244.369 168.016,244.170 168.534 M148.715 226.700 C 146.736 228.974,132.360 251.513,131.786 253.243 C 128.080 264.400,138.840 278.058,148.471 274.422 C 155.610 271.726,157.475 265.646,155.105 252.800 C 154.516 249.610,153.306 242.680,152.415 237.400 C 150.446 225.736,150.193 225.002,148.715 226.700 M249.645 227.300 C 249.460 227.795,248.734 231.620,248.031 235.800 C 247.328 239.980,246.244 246.280,245.624 249.800 C 243.189 263.613,243.239 262.883,244.466 266.622 C 246.600 273.120,253.593 276.716,259.335 274.266 C 266.267 271.309,270.771 259.009,267.509 251.944 C 265.570 247.746,251.207 226.400,250.320 226.400 C 250.133 226.400,249.829 226.805,249.645 227.300 M99.578 228.700 L 98.200 230.200 99.700 228.822 C 101.096 227.538,101.384 227.200,101.078 227.200 C 101.012 227.200,100.337 227.875,99.578 228.700 M306.893 245.600 C 306.893 246.370,306.975 246.685,307.076 246.300 C 307.176 245.915,307.176 245.285,307.076 244.900 C 306.975 244.515,306.893 244.830,306.893 245.600 M110.575 252.900 L 109.400 254.200 110.700 253.025 C 111.912 251.930,112.184 251.600,111.875 251.600 C 111.806 251.600,111.221 252.185,110.575 252.900 M115.195 270.507 C 111.444 272.778,110.683 273.305,107.800 275.630 C 100.520 281.503,95.944 287.887,94.215 294.584 C 93.225 298.422,93.363 307.736,94.454 310.653 C 98.279 320.877,112.327 321.575,117.535 311.800 L 118.600 309.800 118.600 289.606 C 118.600 266.710,118.879 268.276,115.195 270.507 M281.373 270.127 C 281.262 270.417,281.222 279.372,281.285 290.027 L 281.400 309.400 282.390 311.400 C 287.256 321.225,300.497 321.109,305.164 311.200 C 307.688 305.840,306.420 293.762,302.660 287.361 C 298.011 279.447,282.588 266.960,281.373 270.127 "
       stroke="none"
       fill="#c4849f"
       fill-rule="evenodd"
       style="stroke:#000000;stroke-opacity:1;fill:none" />
  </g>
</svg>
